<svg width="150" height="56" viewBox="0 0 150 56" fill="none" xmlns="http://www.w3.org/2000/svg">
<path d="M150 0.0940514H0V55.9998H150V0.0940514Z" fill="#ED1C24"/>
<path d="M32.5059 40.9788H31.2803L33.2701 44.8127C33.1745 45.1112 33.0631 45.3154 32.9517 45.4097C32.8403 45.5041 32.6652 45.5511 32.4105 45.5511C32.2831 45.5511 32.1398 45.5511 31.9966 45.5355V46.3368C32.1717 46.384 32.4263 46.3996 32.7607 46.3996C33.0949 46.3996 33.3496 46.2896 33.5566 46.0539C33.7635 45.8182 33.9705 45.4883 34.1615 45.0483L35.9921 40.9788H34.8619L33.7794 43.7599L32.5059 40.9788Z" fill="white"/>
<path d="M84.3678 36.689C92.0564 36.689 99.6654 36.689 107.306 36.689C107.306 34.0965 107.306 31.5981 107.306 29.0212C106.861 29.0212 106.463 29.037 106.065 29.0056C105.969 29.0056 105.826 28.8799 105.81 28.7855C105.794 28.6913 105.874 28.5342 105.969 28.4712C106.16 28.3613 106.383 28.3143 106.574 28.2041C107.211 27.8428 107.609 27.3086 107.577 26.5543C107.561 25.8158 107.163 25.3288 106.542 24.9831C105.492 24.4175 104.186 24.6846 103.422 25.5959C103.327 25.7059 103.215 25.8002 103.12 25.8944C103.39 24.826 104.107 24.2604 105.11 24.1032C105.11 22.2963 105.11 20.5522 105.11 18.7294C103.327 18.7294 101.592 18.7294 99.7929 18.7294C99.7929 15.964 99.7929 13.2929 99.7929 10.5903C99.5382 10.5589 99.3631 10.5274 99.1561 10.496C99.1403 10.2132 99.1084 9.97747 99.0924 9.72609C97.4847 9.72609 95.9406 9.72609 94.3647 9.72609C94.3329 10.0089 94.3168 10.2446 94.301 10.4646C94.0622 10.5274 93.8712 10.5746 93.6324 10.6217C93.6324 10.8574 93.6324 11.0459 93.6324 11.2502C93.6324 16.7968 93.6324 22.3277 93.6324 27.8742C93.6324 28.8955 93.6324 28.8955 92.6615 29.1941C89.7801 30.1054 87.074 31.331 84.8136 33.3422C84.6225 33.5151 84.3997 33.7508 84.3838 33.955C84.336 34.8978 84.3678 35.7777 84.3678 36.689ZM103.884 19.4994C104.107 19.4994 104.266 19.4994 104.489 19.4994C104.489 20.0493 104.489 20.5678 104.489 21.1335C104.282 21.1335 104.107 21.1335 103.884 21.1335C103.884 20.5993 103.884 20.0807 103.884 19.4994ZM102.547 19.5151L103.168 19.4994V21.1335H102.563C102.547 20.6149 102.547 20.1121 102.547 19.5151ZM101.194 19.5308C101.385 19.5308 101.56 19.5308 101.767 19.5308C101.767 20.065 101.767 20.5678 101.767 21.1178C101.576 21.1178 101.401 21.1178 101.194 21.1178C101.194 20.5836 101.194 20.0807 101.194 19.5308ZM99.8247 19.4994C99.8247 19.4994 100.159 19.4994 100.302 19.4994H100.446C100.446 20.0493 100.446 20.5678 100.446 21.0706V21.1178H99.8406V19.4994H99.8247ZM99.0766 11.4859C99.0766 12.0358 99.0766 12.5386 99.0766 13.12C98.8854 13.12 98.6786 13.12 98.4398 13.12C98.4398 12.5544 98.4398 12.083 98.4398 11.4859C98.6626 11.4859 99.0766 11.4859 99.0766 11.4859ZM99.0766 14.1728C99.0766 14.7856 99.0766 15.2098 99.0766 15.7912V15.8226H98.5512C98.5194 15.8226 98.4875 15.8226 98.4557 15.8226C98.4557 15.2412 98.4557 14.7541 98.4557 14.1885C98.6468 14.1728 98.8377 14.1885 99.0766 14.1728ZM97.7235 11.4859C97.7235 12.0673 97.7235 12.5386 97.7235 13.12C97.5166 13.12 97.3254 13.12 97.0708 13.12C97.0708 12.5544 97.0708 12.0516 97.0708 11.4859C97.0708 11.4859 97.5643 11.4859 97.7235 11.4859ZM97.7075 14.1885C97.7075 14.7384 97.7075 15.2098 97.7075 15.7912V15.8226H97.1345C97.1185 15.8226 97.1026 15.8226 97.1026 15.8226C97.1026 15.2412 97.1026 14.7699 97.1026 14.1885C97.3254 14.1885 97.5006 14.1885 97.7075 14.1885ZM95.7496 11.4859H96.3703V13.12H95.7496V11.4859ZM95.7496 14.1885C95.7496 14.1885 96.1317 14.1885 96.3703 14.1885C96.3703 14.7541 96.3703 15.2098 96.3703 15.8069V15.8226H95.7654V14.1885H95.7496ZM94.3966 11.4859H95.0173V13.12C95.0173 13.12 94.5717 13.12 94.3966 13.12C94.3966 12.5544 94.3966 12.0673 94.3966 11.4859ZM94.3966 15.7912C94.3966 15.2255 94.3966 14.7699 94.3966 14.1885C94.6034 14.1885 95.0173 14.1885 95.0173 14.1885V15.8226H94.4124L94.3966 15.7912ZM89.6687 31.7396C89.7006 31.5667 90.0029 31.331 90.2259 31.221C92.1201 30.2783 94.1417 29.697 96.1952 29.2727C98.9652 28.7069 101.767 28.4712 104.584 28.4712C105.301 28.4712 104.966 28.974 104.919 28.974C102.435 29.0056 100.016 29.147 97.628 29.524C95.0173 29.9483 92.4545 30.6554 89.9394 31.8338C89.7006 31.9595 89.6687 31.8338 89.6687 31.7396Z" fill="white"/>
<path d="M30.6579 41.8744V40.9788H26.5986V46.3368H29.1616C29.6072 46.3368 29.9575 46.2896 30.1963 46.1954C30.4351 46.1011 30.6579 45.9283 30.8489 45.6612C31.04 45.4097 31.1354 45.0954 31.1354 44.7342C31.1354 44.3885 31.04 44.0742 30.8489 43.8071C30.6579 43.54 30.4351 43.3671 30.1644 43.2727C29.8937 43.1785 29.5595 43.1314 29.1616 43.1314H27.697V41.89H30.6579V41.8744ZM28.8114 44.0112C29.2412 44.0112 29.5435 44.0742 29.7346 44.1842C29.9098 44.2941 30.0051 44.4827 30.0051 44.7342C30.0051 44.9069 29.9575 45.0483 29.846 45.1584C29.7505 45.2684 29.6232 45.3469 29.48 45.3783C29.3367 45.4097 29.0979 45.4255 28.7635 45.4255H27.697V44.0112H28.8114Z" fill="white"/>
<path d="M22.1731 44.5454V40.9788H21.1543V46.3368H22.2527L24.4336 42.8329V46.3368H25.4682V40.9788H24.3699L22.1731 44.5454Z" fill="white"/>
<path d="M85.848 29.7596C85.3705 29.7596 84.8929 29.7596 84.3994 29.7596C84.3994 30.8438 84.3994 31.8808 84.3994 32.9806C85.9914 31.9436 86.2143 31.4565 85.848 29.7596Z" fill="white"/>
<path d="M24.9746 18.7138C25.8183 18.7138 26.5983 18.7138 27.4899 18.7138C27.4899 24.7634 27.4899 30.7028 27.4899 36.6736C28.5085 36.6736 29.4797 36.6736 30.5302 36.6736C30.5302 30.687 30.5302 24.7162 30.5302 18.6825C31.4694 18.6825 32.3131 18.6825 33.1569 18.6825C33.1569 17.724 33.1569 16.8441 33.1569 15.9642C30.3869 15.9642 27.6808 15.9642 24.9746 15.9642C24.9746 16.8912 24.9746 17.7712 24.9746 18.7138Z" fill="white"/>
<path d="M103.28 14.0155C103.264 13.7641 103.248 13.5441 103.232 13.3241C102.994 13.277 102.803 13.2299 102.58 13.1827C102.564 12.9156 102.548 12.6799 102.532 12.4128C102.293 12.4128 102.086 12.4128 101.863 12.4128C101.832 12.6956 101.8 12.947 101.784 13.2142C101.561 13.2456 101.37 13.277 101.179 13.3084C101.147 13.5756 101.131 13.8112 101.099 14.0312C100.861 14.0626 100.685 14.0941 100.479 14.1098C100.479 15.4611 100.479 16.7652 100.479 18.1323C101.656 18.1323 102.771 18.1323 103.885 18.1323C103.885 16.7495 103.885 15.4297 103.885 14.1098C103.662 14.0784 103.471 14.0469 103.28 14.0155Z" fill="white"/>
<path d="M91.3882 16.9541C91.0858 16.9699 90.8788 16.9855 90.6877 17.0013C90.64 17.2998 90.6082 17.5355 90.5763 17.7712C90.5126 17.7868 90.4649 17.8026 90.4012 17.8026C90.0191 17.0013 89.6372 16.2156 89.2073 15.3199C88.7935 16.1999 88.4114 17.0013 88.0293 17.8026C87.9656 17.7868 87.9021 17.7554 87.8542 17.7398C87.8065 17.5041 87.7588 17.2526 87.711 16.9699C87.4882 16.9855 87.313 17.0013 87.0742 17.0326C87.0742 20.0337 87.0742 22.9878 87.0742 25.9575C86.8514 26.0045 86.6603 26.0359 86.4854 26.0675C86.4854 27.8586 86.4854 29.6186 86.4854 31.2526C88.2363 30.4827 90.0033 29.7285 91.7542 28.9428C91.8975 28.88 92.0568 28.6757 92.0568 28.5186C92.0886 27.7173 92.0726 26.9002 92.0726 26.0517C91.4042 26.1145 91.3405 25.7532 91.3563 25.2504C91.4042 23.3491 91.4042 21.4322 91.4042 19.5309C91.3882 18.6982 91.3882 17.8497 91.3882 16.9541ZM89.5098 26.1303H88.8254V24.3547H89.5098V26.1303ZM89.5098 23.4749H88.8254V21.7151H89.5098V23.4749ZM89.5098 19.0911C89.5098 19.6881 89.5098 20.1909 89.5098 20.6779V20.8037H88.8254V19.0439H89.5098V19.0911Z" fill="white"/>
<path d="M92.5975 28.5968C92.6612 28.6282 92.7089 28.6754 92.7726 28.7068C92.884 28.5654 93.091 28.4083 93.091 28.2668C93.1069 26.6484 93.1069 25.0457 93.1069 23.3959C92.6771 23.3959 92.311 23.3959 91.9131 23.3959C91.9131 24.1029 91.9131 24.7629 91.9131 25.47C92.1359 25.5014 92.3429 25.5328 92.5975 25.5642C92.5975 26.0985 92.5975 26.6014 92.5975 27.1042C92.5975 27.6068 92.5975 28.094 92.5975 28.5968Z" fill="white"/>
<path d="M23.7827 40.0359C23.6713 40.1301 23.5281 40.1615 23.3211 40.1615C23.1143 40.1615 22.971 40.1145 22.8595 40.0359C22.7481 39.9416 22.6843 39.8158 22.6685 39.6431H22.1592C22.191 39.973 22.3024 40.2401 22.5092 40.4288C22.7162 40.6173 22.9869 40.7115 23.3052 40.7115C23.6395 40.7115 23.8943 40.6173 24.1011 40.4288C24.3081 40.2401 24.4195 39.973 24.4513 39.6431H23.942C23.942 39.8158 23.8783 39.9574 23.7827 40.0359Z" fill="white"/>
<path d="M51.4801 18.384C50.9547 16.9384 49.8405 16.0585 48.2964 15.9642C46.7682 15.8699 45.2401 15.9485 43.6641 15.9485C43.6641 22.9093 43.6641 29.7913 43.6641 36.6735C44.6669 36.6735 45.638 36.6735 46.6887 36.6735C46.6887 33.908 46.6887 31.1898 46.6887 28.4244C47.198 28.4244 47.6119 28.44 48.0257 28.4244C49.6973 28.3615 50.9389 27.6073 51.4961 26.0361C52.4193 23.4906 52.4033 20.9136 51.4801 18.384ZM48.758 24.0562C48.6943 25.3446 48.185 25.6589 46.6887 25.4861C46.6887 23.2078 46.6887 20.9136 46.6887 18.5883C48.1373 18.4625 48.6624 18.824 48.7421 20.1909C48.8375 21.4636 48.8217 22.7677 48.758 24.0562Z" fill="white"/>
<path d="M48.9016 41.8271C49.1723 41.8271 49.4109 41.9056 49.6339 42.0628C49.8407 42.2199 49.984 42.4399 50.0637 42.707L51.1461 42.4556C51.0346 41.9684 50.78 41.5914 50.3979 41.3085C50.0158 41.0258 49.5223 40.8842 48.9175 40.8842C48.1375 40.8842 47.5167 41.1357 47.0709 41.6542C46.6253 42.1728 46.4023 42.8483 46.4023 43.6812C46.4023 44.1526 46.4821 44.5925 46.6412 44.9695C46.8004 45.3468 47.0551 45.6924 47.4212 45.9752C47.7872 46.2738 48.2807 46.4152 48.9016 46.4152C49.5065 46.4152 50.0158 46.258 50.3979 45.9595C50.78 45.6453 51.0346 45.2366 51.1621 44.7024L50.0637 44.3725C50.0158 44.7338 49.8886 45.0167 49.6656 45.221C49.4428 45.4096 49.1723 45.5195 48.8379 45.5195C48.5195 45.5195 48.233 45.4096 48.0102 45.1896C47.7872 44.9695 47.644 44.6082 47.5804 44.1368H49.2837V43.2098H47.5804C47.6281 42.8169 47.7554 42.4712 47.9784 42.2199C48.2012 41.9528 48.5195 41.8271 48.9016 41.8271Z" fill="white"/>
<path d="M38.8731 46.3368V41.89H40.4649V40.9788H36.167V41.89H37.7747V46.3368H38.8731Z" fill="white"/>
<path d="M62.416 15.9642C61.3336 22.8935 60.2671 29.7757 59.1846 36.6736C60.1715 36.6736 61.0629 36.6736 62.0022 36.6736C62.225 34.7723 62.432 32.9182 62.6548 31.0484C63.5304 31.0484 64.3422 31.0484 65.1859 31.0484C65.4406 32.9496 65.6794 34.8037 65.9181 36.6736C66.921 36.6736 67.8761 36.6736 68.8631 36.6736C67.7487 29.7285 66.6345 22.8307 65.5361 15.9642C64.4536 15.9642 63.4508 15.9642 62.416 15.9642ZM62.9095 28.3929C63.196 25.4075 63.4985 22.4535 63.801 19.3424C64.1671 22.4221 64.5013 25.3604 64.8675 28.3929C64.2148 28.3929 63.5941 28.3929 62.9095 28.3929Z" fill="white"/>
<path d="M71.9667 31.614C71.8711 33.3896 71.5209 33.7666 69.8337 34.1595C69.8337 34.9136 69.8018 35.6679 69.8495 36.4378C69.8655 36.5792 70.1202 36.7993 70.2953 36.8463C71.8871 37.2077 73.4311 36.3593 74.0043 34.6937C74.3546 33.6725 74.5614 32.5725 74.6092 31.4883C74.7683 28.4558 74.832 25.4075 74.9116 22.3593C74.9434 21.1651 74.9116 19.971 74.9116 18.761C75.6597 18.761 76.2329 18.761 76.9174 18.761C76.9174 24.779 76.9174 30.7341 76.9174 36.6892C77.9202 36.6892 78.8594 36.6892 79.8304 36.6892C79.8304 29.7599 79.8304 22.8779 79.8304 15.9799C77.379 15.9799 74.9753 15.9799 72.3965 15.9799C72.3965 17.8969 72.4443 19.7824 72.3806 21.6521C72.2851 24.9519 72.1418 28.2829 71.9667 31.614Z" fill="white"/>
<path d="M68.3866 47.4995V45.4255H67.909V40.9788H64.1681V41.5444C64.1681 42.4714 64.1362 43.2413 64.0567 43.8385C63.9771 44.4513 63.8339 44.9697 63.611 45.4255H63.1494V47.4995H64.0567V46.3368H67.4632V47.4995H68.3866ZM66.8264 45.4411H64.773C65.0755 44.7026 65.2187 43.5084 65.2187 41.89H66.8264V45.4411Z" fill="white"/>
<path d="M70.6616 44.8127C70.5663 45.1112 70.4547 45.3154 70.3433 45.4097C70.2319 45.5041 70.0568 45.5511 69.8021 45.5511C69.6747 45.5511 69.5314 45.5511 69.3882 45.5355V46.3368C69.5633 46.384 69.8179 46.3996 70.1523 46.3996C70.4865 46.3996 70.7414 46.2896 70.9482 46.0539C71.1551 45.8182 71.3621 45.4883 71.5531 45.0483L73.3837 40.9788H72.2377L71.1551 43.7599L69.8977 40.9788H68.6719L70.6616 44.8127Z" fill="white"/>
<path d="M59.9808 45.5511C59.8534 45.5511 59.7101 45.5511 59.5669 45.5355V46.3368C59.742 46.384 59.9967 46.3996 60.3309 46.3996C60.6652 46.3996 60.9199 46.2896 61.1269 46.0539C61.3338 45.8182 61.5408 45.4883 61.7318 45.0483L63.5624 40.9788H62.4162L61.3338 43.7599L60.0762 40.9788H58.8506L60.8404 44.8127C60.7448 45.1112 60.6334 45.3154 60.522 45.4097C60.4106 45.5041 60.2355 45.5511 59.9808 45.5511Z" fill="white"/>
<path d="M76.1858 41.8271C76.4563 41.8271 76.6951 41.9056 76.9179 42.0628C77.1249 42.2199 77.2682 42.4399 77.3477 42.707L78.4302 42.4556C78.3188 41.9684 78.0642 41.5914 77.6821 41.3085C77.3 41.0258 76.8065 40.8842 76.2016 40.8842C75.4216 40.8842 74.8009 41.1357 74.3551 41.6542C73.9093 42.1728 73.6865 42.8483 73.6865 43.6812C73.6865 44.1526 73.7661 44.5925 73.9253 44.9695C74.0844 45.3468 74.3391 45.6924 74.7053 45.9752C75.0714 46.2738 75.5649 46.4152 76.1858 46.4152C76.7907 46.4152 77.3 46.258 77.6821 45.9595C78.0642 45.6453 78.3188 45.2366 78.4461 44.7024L77.3477 44.3725C77.3 44.7338 77.1726 45.0167 76.9498 45.221C76.727 45.4096 76.4563 45.5195 76.1221 45.5195C75.8037 45.5195 75.5172 45.4096 75.2942 45.1896C75.0714 44.9695 74.9282 44.6082 74.8644 44.1368H76.5677V43.2098H74.8644C74.9123 42.8169 75.0396 42.4712 75.2625 42.2199C75.4853 41.9528 75.7877 41.8271 76.1858 41.8271Z" fill="white"/>
<path d="M17.2243 40.9788L15.123 46.3368H16.2851L16.7308 45.1268H18.8957L19.3733 46.3368H20.5671L18.4022 40.9788H17.2243ZM17.065 44.2156L17.7973 42.2357L18.5455 44.2156H17.065Z" fill="white"/>
<path d="M60.8406 15.9642C59.3443 15.9642 57.8957 15.9642 56.3994 15.9642C56.3994 16.8912 56.3994 17.7868 56.3994 18.6668C57.8799 18.6668 59.3601 18.6668 60.8406 18.6668C60.8406 17.7084 60.8406 16.8284 60.8406 15.9642Z" fill="white"/>
<path d="M105.778 21.4007C105.778 22.3277 105.778 23.2234 105.778 24.1033C106.304 24.339 106.781 24.5747 107.275 24.7946C107.625 22.8305 107.338 22.202 105.778 21.4007Z" fill="white"/>
<path d="M53.4057 36.6578C54.4243 36.6578 55.3954 36.6578 56.3982 36.6578C56.3982 32.6667 56.3982 28.7227 56.3982 24.779C56.3982 22.752 56.3824 20.7093 56.3664 18.6825C55.3794 18.6825 54.3926 18.6825 53.3896 18.6825C53.4057 24.7474 53.4057 30.6868 53.4057 36.6578Z" fill="white"/>
<path d="M53.4541 15.9642C53.4541 16.7341 53.4541 17.4411 53.4541 18.1482C54.266 18.1482 55.0301 18.1482 55.7941 18.1482C55.7941 17.3941 55.7941 16.6713 55.7941 15.9642C54.9664 15.9642 54.2183 15.9642 53.4541 15.9642Z" fill="white"/>
<path d="M58.2136 41.8744V40.9788H54.1543V46.3368H56.7173C57.1629 46.3368 57.5131 46.2896 57.7519 46.1954C57.9908 46.1011 58.2136 45.9283 58.4045 45.6612C58.5956 45.4097 58.6912 45.0954 58.6912 44.7342C58.6912 44.3885 58.5956 44.0742 58.4045 43.8071C58.2136 43.54 57.9908 43.3671 57.7201 43.2727C57.4494 43.1785 57.1152 43.1314 56.7173 43.1314H55.2527V41.89H58.2136V41.8744ZM56.367 44.0112C56.7968 44.0112 57.0994 44.0742 57.2903 44.1842C57.4654 44.2941 57.561 44.4827 57.561 44.7342C57.561 44.9069 57.5131 45.0483 57.4017 45.1584C57.3062 45.2684 57.1789 45.3469 57.0356 45.3783C56.8924 45.4097 56.6536 45.4255 56.3194 45.4255H55.2527V44.0112H56.367Z" fill="white"/>
<path d="M99.012 46.3368V40.9788H96.7038C96.1626 40.9788 95.7487 41.0259 95.4782 41.1045C95.2075 41.1831 94.9847 41.3558 94.8254 41.6073C94.6663 41.8586 94.5708 42.1415 94.5708 42.4714C94.5708 42.8485 94.6822 43.1628 94.9052 43.4299C95.128 43.697 95.494 43.8699 96.0034 43.9485C95.7647 44.0742 95.5736 44.2313 95.4145 44.3885C95.2552 44.5612 95.0484 44.8441 94.7936 45.2526L94.125 46.2896H95.4303L96.2263 45.1268C96.5766 44.624 96.8152 44.3099 96.9585 44.2156C97.1019 44.1212 97.3406 44.0584 97.6908 44.0584H97.9136V46.2896H99.012V46.3368ZM97.1019 43.2413C96.6561 43.2413 96.3536 43.2257 96.2103 43.1942C96.0671 43.1628 95.9398 43.1 95.8443 42.99C95.7487 42.88 95.701 42.7229 95.701 42.55C95.701 42.3772 95.7487 42.2201 95.8443 42.1101C95.9398 42 96.0671 41.9372 96.1945 41.9058C96.3378 41.89 96.6243 41.8744 97.054 41.8744H97.9136V43.2257H97.1019V43.2413Z" fill="white"/>
<path d="M138.651 46.3368V40.9788H137.553V43.0842H135.404V40.9788H134.321V46.3368H135.404V43.9956H137.553V46.3368H138.651Z" fill="white"/>
<path d="M112.066 18.1325C112.894 18.1325 113.674 18.1325 114.454 18.1325C114.454 17.3941 114.454 16.687 114.454 15.9642C113.61 15.9642 112.846 15.9642 112.066 15.9642C112.066 16.7027 112.066 17.4255 112.066 18.1325Z" fill="white"/>
<path d="M9.3291 18.1167C10.1569 18.1167 10.9369 18.1167 11.7169 18.1167C11.7169 17.3468 11.7169 16.6397 11.7169 15.8855C10.8732 15.8855 10.1091 15.8855 9.3291 15.8855C9.3291 16.6554 9.3291 17.3782 9.3291 18.1167Z" fill="white"/>
<path d="M104.504 41.8113C104.79 41.8113 105.045 41.8899 105.252 42.047C105.459 42.2041 105.586 42.4241 105.65 42.707L106.732 42.4556C106.605 42.0314 106.43 41.7013 106.175 41.4656C105.761 41.0728 105.22 40.8842 104.552 40.8842C103.787 40.8842 103.183 41.1357 102.721 41.6228C102.259 42.11 102.021 42.8013 102.021 43.6968C102.021 44.5453 102.259 45.2052 102.721 45.6924C103.183 46.1795 103.772 46.4152 104.504 46.4152C105.093 46.4152 105.57 46.2738 105.952 45.9909C106.334 45.7081 106.605 45.2682 106.764 44.6868L105.698 44.3568C105.602 44.7496 105.459 45.0325 105.252 45.221C105.045 45.4096 104.79 45.4881 104.504 45.4881C104.106 45.4881 103.787 45.3468 103.549 45.0639C103.31 44.781 103.183 44.294 103.183 43.6182C103.183 42.9741 103.31 42.5184 103.565 42.2355C103.787 41.9528 104.106 41.8113 104.504 41.8113Z" fill="white"/>
<path d="M132.011 15.9327C131.979 16.247 131.948 16.4984 131.948 16.7655C131.836 19.2167 131.757 21.6678 131.629 24.119C131.486 27.0416 131.04 29.9013 130.165 32.6981C129.942 33.3896 129.846 34.2381 128.748 33.908C128.748 34.8822 128.748 35.7621 128.748 36.642C132.76 36.642 136.707 36.642 140.655 36.642C140.655 35.7149 140.655 34.8193 140.655 33.8922C140.114 33.8922 139.636 33.8922 139.079 33.8922C139.079 27.8744 139.079 21.9192 139.079 15.9327C136.707 15.9327 134.399 15.9327 132.011 15.9327ZM136.102 33.8922C134.972 33.8922 133.89 33.8922 132.728 33.8922C134.224 28.9428 134.224 23.8519 134.447 18.7452C135.004 18.7452 135.529 18.7452 136.087 18.7452C136.102 23.789 136.102 28.8171 136.102 33.8922Z" fill="white"/>
<path d="M14.708 15.9642C14.708 22.8935 14.708 29.7755 14.708 36.6578C15.7109 36.6578 16.6819 36.6578 17.7007 36.6578C17.7007 33.4682 17.7007 30.3099 17.7007 27.1673C18.6399 27.1673 19.5153 27.1673 20.4546 27.1673C20.4546 30.3569 20.4546 33.4995 20.4546 36.6736C21.4734 36.6736 22.4444 36.6736 23.4472 36.6736C23.4472 29.7285 23.4472 22.8463 23.4472 15.9484C22.4444 15.9484 21.4734 15.9484 20.4386 15.9484C20.4386 18.7768 20.4386 21.5578 20.4386 24.3705C19.4835 24.3705 18.5921 24.3705 17.653 24.3705C17.653 21.5422 17.653 18.761 17.653 15.9642C16.6341 15.9642 15.6631 15.9642 14.708 15.9642Z" fill="white"/>
<path d="M133.572 47.4995V45.4255H133.095V40.9788H129.354V41.5444C129.354 42.4714 129.322 43.2413 129.242 43.8385C129.179 44.4513 129.019 44.9697 128.797 45.4255H128.335V47.4995H129.242V46.3368H132.649V47.4995H133.572ZM132.012 45.4411H129.959C130.261 44.7026 130.404 43.5084 130.404 41.89H132.012V45.4411Z" fill="white"/>
<path d="M124.355 41.1043C124.101 41.2143 123.862 41.3714 123.655 41.5914C123.448 41.8113 123.273 42.047 123.145 42.3299C122.986 42.707 122.891 43.1626 122.891 43.6968C122.891 44.5453 123.129 45.221 123.607 45.7081C124.085 46.1953 124.721 46.4308 125.533 46.4308C126.329 46.4308 126.966 46.1795 127.443 45.6924C127.921 45.2052 128.16 44.5297 128.16 43.6654C128.16 42.8013 127.921 42.11 127.443 41.6228C126.966 41.1357 126.329 40.8842 125.533 40.8842C125.087 40.8842 124.689 40.9628 124.355 41.1043ZM126.616 42.2669C126.886 42.5656 127.029 43.0212 127.029 43.634C127.029 44.2468 126.886 44.7182 126.616 45.0325C126.329 45.3468 125.979 45.5039 125.549 45.5039C125.119 45.5039 124.753 45.3468 124.467 45.0325C124.18 44.7182 124.037 44.2626 124.037 43.6498C124.037 43.0368 124.18 42.5656 124.451 42.2669C124.721 41.9684 125.088 41.8113 125.549 41.8113C125.979 41.8113 126.345 41.9684 126.616 42.2669Z" fill="white"/>
<path d="M114.262 41.1043C114.008 41.2143 113.769 41.3714 113.562 41.5914C113.355 41.8113 113.18 42.047 113.053 42.3299C112.893 42.707 112.798 43.1626 112.798 43.6968C112.798 44.5453 113.037 45.221 113.514 45.7081C113.992 46.1953 114.629 46.4308 115.44 46.4308C116.236 46.4308 116.873 46.1795 117.351 45.6924C117.828 45.2052 118.067 44.5297 118.067 43.6654C118.067 42.8013 117.828 42.11 117.351 41.6228C116.873 41.1357 116.236 40.8842 115.44 40.8842C114.995 40.8842 114.597 40.9628 114.262 41.1043ZM116.539 42.2669C116.809 42.5656 116.953 43.0212 116.953 43.634C116.953 44.2468 116.809 44.7182 116.539 45.0325C116.252 45.3468 115.902 45.5039 115.472 45.5039C115.042 45.5039 114.676 45.3468 114.39 45.0325C114.103 44.7182 113.96 44.2626 113.96 43.6498C113.96 43.0368 114.103 42.5656 114.374 42.2669C114.645 41.9684 115.011 41.8113 115.472 41.8113C115.902 41.8113 116.252 41.9684 116.539 42.2669Z" fill="white"/>
<path d="M118.991 46.3368H120.074V41.8744H122.652V40.9788H118.991V46.3368Z" fill="white"/>
<path d="M14.5809 46.3368V40.9788H12.9413L11.9703 44.624L10.9834 40.9788H9.34375V46.3368H10.3625V42.1257L11.4291 46.3368H12.4797L13.5621 42.1257V46.3368H14.5809Z" fill="white"/>
<path d="M9.3291 36.6888C10.3479 36.6888 11.3189 36.6888 12.3377 36.6888C12.3377 30.7024 12.3377 24.7473 12.3377 18.7607C11.303 18.7607 10.332 18.7607 9.3291 18.7607C9.3291 24.7473 9.3291 30.718 9.3291 36.6888Z" fill="white"/>
<path d="M125.963 25.4859C125.836 25.3916 125.804 25.2974 125.788 25.2031C125.262 22.2805 124.737 19.3422 124.196 16.4197C124.164 16.2311 123.973 15.9326 123.83 15.9326C122.843 15.8854 121.856 15.9169 120.821 15.9169C120.869 16.184 120.901 16.3568 120.933 16.5139C122.127 21.2435 123.336 25.973 124.546 30.7024C124.801 31.7238 124.498 32.6667 123.989 33.5152C123.814 33.7979 123.368 34.0022 123.002 34.0808C122.556 34.1749 122.079 34.0965 121.554 34.0965C121.554 34.4736 121.554 34.8349 121.554 35.2121C121.554 36.8933 121.554 36.8619 123.289 36.8619C124.817 36.8619 125.868 36.1706 126.441 34.7879C126.727 34.0965 126.982 33.3894 127.125 32.6667C127.985 28.3927 128.828 24.1347 129.656 19.8608C129.911 18.5723 130.165 17.2682 130.42 15.9483C129.417 15.9483 128.478 15.9483 127.523 15.9483C126.998 19.1379 126.472 22.3119 125.963 25.4859Z" fill="white"/>
<path d="M83.9707 46.3364H86.5335C86.9793 46.3364 87.3295 46.2892 87.5682 46.1949C87.807 46.1007 88.0298 45.9278 88.2049 45.6765C88.396 45.425 88.4914 45.1109 88.4914 44.7494C88.4914 44.3094 88.3323 43.9165 88.0298 43.6024C87.7274 43.2882 87.2179 43.131 86.5335 43.131H85.0691V40.994H83.9707V46.3364ZM85.0691 44.0109H86.1833C86.6131 44.0109 86.9156 44.0737 87.1065 44.1838C87.2817 44.2938 87.3772 44.4823 87.3772 44.718C87.3772 44.8908 87.3295 45.0323 87.2179 45.1423C87.1065 45.2522 86.9951 45.3308 86.8679 45.3622C86.7405 45.3936 86.5017 45.4094 86.1514 45.4094H85.0849V44.0109H85.0691Z" fill="white"/>
<path d="M41.1816 40.9788V46.3368H42.28V43.9956H44.4291V46.3368H45.5114V40.9788H44.4291V43.0842H42.28V40.9788H41.1816Z" fill="white"/>
<path d="M140.847 40.9788H139.749V46.3368H140.847V40.9788Z" fill="white"/>
<path d="M114.98 18.6847C114.98 18.6847 115.002 18.6847 114.98 18.6847C114.98 18.6637 114.98 18.6847 114.98 18.6847Z" fill="white"/>
<path d="M91.4834 41.8113C91.7699 41.8113 92.0246 41.8899 92.2316 42.047C92.4385 42.2041 92.5658 42.4241 92.6295 42.707L93.712 42.4556C93.5846 42.0314 93.4095 41.7013 93.1548 41.4656C92.7409 41.0728 92.1997 40.8842 91.5311 40.8842C90.767 40.8842 90.1621 41.1357 89.7004 41.6228C89.2388 42.11 89 42.8013 89 43.6968C89 44.5453 89.2388 45.2052 89.7004 45.6924C90.1621 46.1795 90.7511 46.4152 91.4834 46.4152C92.0723 46.4152 92.5499 46.2738 92.932 45.9909C93.3139 45.7081 93.5846 45.2682 93.7439 44.6868L92.6772 44.3568C92.5818 44.7496 92.4385 45.0325 92.2316 45.221C92.0246 45.4096 91.7699 45.4881 91.4834 45.4881C91.0853 45.4881 90.767 45.3468 90.5283 45.0639C90.2895 44.781 90.1621 44.294 90.1621 43.6182C90.1621 42.9741 90.2895 42.5184 90.5442 42.2355C90.767 41.9528 91.0853 41.8113 91.4834 41.8113Z" fill="white"/>
<path d="M81.6301 46.3368V41.89H83.2378V40.9788H78.9238V41.89H80.5317V46.3368H81.6301Z" fill="white"/>
<path d="M112.082 36.6892C113.658 36.6892 115.186 36.7677 116.714 36.6734C118.306 36.5792 119.5 35.7935 120.025 34.2537C120.821 31.8498 120.885 29.3985 120.2 26.963C119.755 25.376 118.624 24.5275 116.985 24.339C116.332 24.2604 115.679 24.2448 114.979 24.1818C114.979 22.3121 114.979 20.5052 114.979 18.6982C114.008 18.6982 113.053 18.6982 112.082 18.6982C112.082 24.7476 112.082 30.7026 112.082 36.6892ZM115.043 26.8374C116.38 26.5701 117.128 26.963 117.256 28.2201C117.399 29.6656 117.431 31.1426 117.319 32.5881C117.224 33.908 116.507 34.3166 115.043 34.1279C115.043 31.6611 115.043 29.2413 115.043 26.8374Z" fill="white"/>
<path d="M41.6432 18.6982C41.6432 17.724 41.6432 16.8441 41.6432 15.9484C39.3032 15.9484 36.9951 15.9484 34.6709 15.9484C34.6709 22.8777 34.6709 29.7599 34.6709 36.6578C37.1223 36.6578 39.526 36.6578 41.9297 36.6578C41.9297 35.7307 41.9297 34.8351 41.9297 33.908C40.4811 33.908 39.0962 33.908 37.6795 33.908C37.6795 31.6297 37.6795 29.4143 37.6795 27.1045C38.6504 27.1045 39.5897 27.1045 40.497 27.1045C40.497 26.1617 40.497 25.329 40.497 24.4175C39.526 24.4175 38.6028 24.4175 37.6635 24.4175C37.6635 22.4849 37.6635 20.6151 37.6635 18.6825C39.0007 18.6982 40.2902 18.6982 41.6432 18.6982Z" fill="white"/>
<path d="M119.898 15.9642C118.242 15.9642 116.651 15.9642 114.995 15.9642C114.995 16.8912 114.995 17.7868 114.995 18.6668C116.635 18.6668 118.274 18.6668 119.898 18.6668C119.898 17.724 119.898 16.8441 119.898 15.9642Z" fill="white"/>
<path d="M114.98 18.6667C115.002 18.6886 115.002 18.6667 114.98 18.6667C115.002 18.6667 114.98 18.6667 114.98 18.6667Z" fill="white"/>
<path d="M107.721 40.9788V46.3368H110.284C110.729 46.3368 111.08 46.2896 111.318 46.1954C111.557 46.1011 111.78 45.9283 111.955 45.6768C112.146 45.4255 112.241 45.1112 112.241 44.7498C112.241 44.3099 112.082 43.9171 111.78 43.6028C111.477 43.2885 110.968 43.1314 110.284 43.1314H108.819V40.9945H107.721V40.9788ZM109.917 44.0112C110.347 44.0112 110.65 44.0742 110.841 44.1842C111.016 44.2941 111.111 44.4827 111.111 44.7184C111.111 44.8911 111.064 45.0326 110.952 45.1426C110.841 45.2526 110.729 45.3311 110.602 45.3625C110.474 45.3939 110.236 45.4097 109.886 45.4097H108.819V43.9956H109.917V44.0112Z" fill="white"/>
</svg>
