<svg width="150" height="247" viewBox="0 0 150 247" fill="none" xmlns="http://www.w3.org/2000/svg">
<rect x="28" y="245" width="48" height="2" fill="#E5E7E7"/>
<rect x="76" y="245" width="47" height="2" fill="#ABB2B2"/>
<path d="M128.25 0H0V225H150V21.75L128.25 0Z" fill="#F3EDEC"/>
<path d="M91.2979 146.297C92.5978 147.597 93.2978 149.397 93.2978 151.197C93.2978 152.997 92.5978 154.797 91.2979 156.096C89.9979 157.396 88.198 158.096 86.3981 158.096C84.5982 158.096 82.7983 157.396 81.4983 156.096C80.1984 154.797 79.4984 153.097 79.4984 151.197V150.997H82.4983V151.197C82.4983 153.397 84.2982 155.097 86.3981 155.097C88.498 155.097 90.2979 153.297 90.2979 151.197C90.2979 149.097 88.498 147.297 86.3981 147.297C85.6981 147.297 84.9982 147.497 84.3982 147.797L82.4983 146.197L87.3981 140.097H79.3984V137.097H93.6978L87.698 144.497C89.098 144.697 90.2979 145.397 91.2979 146.297Z" fill="#D7C6C2"/>
<path d="M111.998 157.898H95.999C95.999 157.898 100.599 152.498 102.899 149.798C104.099 148.398 105.399 147.099 106.499 145.599C107.098 144.799 107.598 143.799 107.398 142.799C107.198 141.899 106.599 141.399 106.099 140.999C105.399 140.499 104.599 140.299 103.799 140.299C101.499 140.299 99.5989 142.199 99.5989 144.499H96.099C96.099 142.499 96.899 140.499 98.2989 139.099C99.7988 137.699 101.699 136.899 103.699 136.899C105.199 136.899 106.799 137.399 107.998 138.199C109.398 139.199 110.398 140.599 110.698 142.099C110.998 143.599 110.798 145.099 109.998 146.499C109.198 147.999 107.998 149.198 106.899 150.498L103.299 154.698H111.998V157.898Z" fill="#D7C6C2"/>
<path d="M50.4994 119L77.8981 173.597L71.5984 186.097L38 119H50.4994Z" fill="#D7C6C2"/>
<path d="M98.4959 127.6L93.4961 119.1H103.396L98.4959 127.6Z" fill="#D7C6C2"/>
<path d="M11.66 35C12.5575 35 14.0861 34.3922 17.0223 29.1933C18.7143 28.4172 20.5714 27.7219 22.4074 27.1778C23.7416 26.7828 25.0768 26.4722 26.3816 26.2547C28.5326 27.575 31.0323 28.4203 32.8119 28.4203C34.7795 28.4203 34.9826 27.3072 34.9982 26.9664C35.0196 26.4994 34.8531 26.0672 34.517 25.7156C33.8035 24.9686 32.3487 24.59 30.1938 24.59C29.1213 24.59 27.9364 24.6867 26.6677 24.8772C25.3841 24.0306 24.3239 23.0328 23.5918 21.9814C22.9039 20.9944 22.2935 19.9147 21.7747 18.7686C23.1795 14.6544 23.4529 11.9522 22.5871 10.7353C22.2446 10.2544 21.7372 10 21.1193 10C20.4294 10 19.8654 10.305 19.4884 10.8819C18.3687 12.5953 19.2386 16.1731 20.3617 18.8239C19.8385 20.3008 19.1856 21.8925 18.4662 23.4444C17.655 25.1953 16.8528 26.7872 16.081 28.1803C13.8764 29.2233 10.3609 31.1628 10.0272 33.05C9.93077 33.5969 10.0919 34.0983 10.4934 34.4997C10.8207 34.8269 11.2241 35 11.66 35ZM30.1935 25.9058C32.6849 25.9058 33.4039 26.4556 33.5651 26.6242C33.6754 26.7394 33.6868 26.8317 33.682 26.9217C33.657 26.9606 33.4367 27.1042 32.8116 27.1042C31.8347 27.1042 30.2902 26.7472 28.6279 25.9719C29.1747 25.9281 29.6976 25.9058 30.1935 25.9058ZM20.5903 11.6017C20.7212 11.4014 20.8795 11.3158 21.1193 11.3158C21.3396 11.3158 21.4366 11.3886 21.5144 11.4978C21.9003 12.0403 21.9262 13.7147 21.0107 16.8297C20.1644 14.2925 20.1216 12.3186 20.5903 11.6017ZM19.6604 23.9975C20.1902 22.8542 20.6853 21.6886 21.1213 20.5603L21.1388 20.5994L21.1665 20.5192C21.5755 21.2947 22.0253 22.0353 22.5116 22.7333C23.112 23.5956 23.9005 24.4208 24.8321 25.1675L24.7001 25.1881L24.7565 25.2242C23.8541 25.4153 22.943 25.6469 22.0337 25.9164C20.7053 26.31 19.3653 26.7806 18.0803 27.3031L18.1217 27.2289L18.0695 27.2533C18.5927 26.2428 19.125 25.1536 19.6604 23.9975ZM11.3233 33.2789C11.4322 32.6628 12.5611 31.5672 14.8299 30.2992C12.7981 33.4978 11.8515 33.6842 11.66 33.6842C11.597 33.6842 11.5247 33.6703 11.4239 33.5697C11.3161 33.4614 11.3052 33.3814 11.3233 33.2789Z" fill="#323131"/>
<path d="M128 22V0L150 22H128Z" fill="#D7C6C2"/>
</svg>
