<svg width="15" height="11" viewBox="0 0 15 11" fill="none" xmlns="http://www.w3.org/2000/svg">
<path d="M15 1.23631C15 0.554755 14.4367 0 13.7446 0H1.25536C0.563305 0 0 0.554755 0 1.23631V9.76369C0 10.4452 0.563305 11 1.25536 11H13.7446C14.4367 11 15 10.4452 15 9.76369V1.23631ZM14.4206 1.22046V9.74784C14.4206 9.83977 14.4013 9.92853 14.3659 10.0078L9.78863 5.56974L14.3948 1.04611C14.4109 1.1 14.4206 1.16023 14.4206 1.22046ZM13.7446 0.570605C13.8412 0.570605 13.9345 0.583285 14.0182 0.618156L8.20494 6.32421C7.81545 6.70461 7.18455 6.70461 6.79506 6.32104L0.98176 0.621326C1.06545 0.586455 1.15558 0.570605 1.25536 0.570605H13.7446ZM0.614807 9.9634C0.592275 9.89683 0.579399 9.82392 0.579399 9.74784V1.22046C0.579399 1.16023 0.589056 1.1 0.60515 1.04611L5.17918 5.53804L0.614807 9.9634ZM1.25536 10.4294C1.17167 10.4294 1.09442 10.4072 1.02039 10.3787L5.58798 5.9438L6.38627 6.72363C6.69206 7.02478 7.09764 7.17377 7.5 7.17377C7.90236 7.17377 8.30794 7.02161 8.61373 6.72046L9.37983 5.96916L13.9313 10.3914C13.8734 10.4072 13.809 10.4262 13.7446 10.4262H1.25536V10.4294Z" fill="#7A7979"/>
</svg>
