<svg width="10" height="16" viewBox="0 0 10 16" fill="none" xmlns="http://www.w3.org/2000/svg">
<path d="M8.69874 1.00291L6.77991 1C4.62416 1 3.23102 2.35233 3.23102 4.44542V6.03399H1.30172C1.135 6.03399 1 6.16187 1 6.3196V8.62126C1 8.77899 1.13516 8.90672 1.30172 8.90672H3.23102V14.7145C3.23102 14.8723 3.36603 15 3.53274 15H6.04993C6.21665 15 6.35165 14.8721 6.35165 14.7145V8.90672H8.60746C8.77417 8.90672 8.90918 8.77899 8.90918 8.62126L8.9101 6.3196C8.9101 6.24386 8.87824 6.17133 8.82174 6.11773C8.76525 6.06414 8.68828 6.03399 8.60823 6.03399H6.35165V4.68734C6.35165 4.04008 6.51467 3.71151 7.40582 3.71151L8.69844 3.71107C8.865 3.71107 9 3.58319 9 3.4256V1.28838C9 1.13094 8.86515 1.0032 8.69874 1.00291Z" stroke="#7A7979"/>
</svg>
