<svg width="29" height="26" viewBox="0 0 29 26" fill="none" xmlns="http://www.w3.org/2000/svg">
<path d="M20.3048 10.3994C20.8001 10.8946 21.0667 11.5803 21.0667 12.266C21.0667 12.9517 20.8001 13.6375 20.3048 14.1327C19.8096 14.6279 19.1239 14.8946 18.4382 14.8946C17.7524 14.8946 17.0667 14.6279 16.5715 14.1327C16.0762 13.6375 15.8096 12.9898 15.8096 12.266V12.1898H16.9524V12.266C16.9524 13.1041 17.6382 13.7518 18.4382 13.7518C19.2382 13.7518 19.9239 13.066 19.9239 12.266C19.9239 11.466 19.2382 10.7803 18.4382 10.7803C18.1715 10.7803 17.9048 10.8565 17.6762 10.9708L16.9524 10.3613L18.8191 8.03746H15.7715V6.89461H21.2191L18.9334 9.71366C19.4667 9.78985 19.9239 10.0565 20.3048 10.3994Z" fill="#323131"/>
<path d="M28.1905 14.819H22.0952C22.0952 14.819 23.8476 12.7619 24.7238 11.7333C25.1809 11.2 25.6762 10.7047 26.0952 10.1333C26.3238 9.82855 26.5143 9.4476 26.4381 9.06665C26.3619 8.72379 26.1333 8.53332 25.9428 8.38093C25.6762 8.19046 25.3714 8.11427 25.0666 8.11427C24.1905 8.11427 23.4666 8.83808 23.4666 9.71427H22.1333C22.1333 8.95236 22.4381 8.19046 22.9714 7.65712C23.5428 7.12379 24.2666 6.81903 25.0285 6.81903C25.6 6.81903 26.2095 7.00951 26.6666 7.31427C27.2 7.69522 27.5809 8.22855 27.6952 8.79998C27.8095 9.37141 27.7333 9.94284 27.4285 10.4762C27.1238 11.0476 26.6666 11.5047 26.2476 12L24.8762 13.6H28.1905V14.819Z" fill="#323131"/>
<path d="M4.7619 0L15.2 20.8L12.8 25.5619L0 0H4.7619Z" fill="#323131"/>
<path d="M23.0476 3.27618L21.1428 0.0380859H24.9143L23.0476 3.27618Z" fill="#323131"/>
</svg>
