<svg width="18" height="20" viewBox="0 0 18 20" fill="none" xmlns="http://www.w3.org/2000/svg">
<path d="M18 5.97465C18 7.37562 17.4557 8.69139 16.4671 9.6793C15.4813 10.6654 14.1681 11.2086 12.77 11.2086C11.9245 11.2086 11.0937 11.0058 10.3495 10.6194L8.39992 12.569L9.87243 14.0415C9.9979 14.1673 10.1784 14.4513 9.97453 14.9431C9.72612 15.5427 8.8209 16.4677 8.1267 16.4677C7.93545 16.4677 7.7672 16.4009 7.64066 16.2747L6.16779 14.8011L5.5703 15.3982L7.04281 16.8711C7.16864 16.9969 7.34875 17.2813 7.14455 17.7731C6.89578 18.3724 5.99055 19.2973 5.29636 19.2973C5.10475 19.2973 4.9365 19.2301 4.8096 19.1032L3.33098 17.6242L2.42001 18.4935C2.29993 18.6139 2.13169 18.6808 1.94007 18.6808C1.24588 18.6808 0.3403 17.7555 0.0918854 17.1558C-0.111591 16.664 0.0685174 16.38 0.193983 16.2545L8.11628 8.38618C7.06726 6.36651 7.43467 3.89135 9.05673 2.26929C10.045 1.28066 11.3608 0.736382 12.7617 0.736382C14.1631 0.736382 15.4788 1.28102 16.4667 2.26965C17.4554 3.25755 18 4.57332 18 5.97465ZM5.29672 18.5248H5.29528L5.29672 18.9112V18.5248ZM17.2271 5.97465C17.2271 4.78003 16.763 3.65875 15.9203 2.81681C15.078 1.97378 13.9567 1.51002 12.7617 1.51002C11.5671 1.51002 10.4455 1.97414 9.60317 2.81645C8.15942 4.2602 7.88188 6.49736 8.92803 8.25711C9.01862 8.40954 8.99417 8.60403 8.86799 8.72878L0.775653 16.7668C0.791831 16.8581 0.896445 17.0889 1.17074 17.3812C1.47308 17.704 1.78405 17.8852 1.91671 17.9061L3.0707 16.8042C3.14548 16.733 3.24146 16.6974 3.33745 16.6974C3.43631 16.6974 3.53553 16.7352 3.61067 16.8107L5.32153 18.5223C5.45526 18.5 5.76515 18.3188 6.06713 17.9967C6.34107 17.7044 6.44532 17.474 6.46114 17.3827L4.75028 15.6714C4.67766 15.5988 4.63704 15.5003 4.63704 15.3979C4.63704 15.2954 4.67802 15.1973 4.75028 15.1246L5.89457 13.9811C6.04592 13.8301 6.29038 13.8304 6.44101 13.9811L8.15115 15.6919C8.28596 15.6693 8.59513 15.4885 8.89603 15.1674C9.17033 14.8748 9.27458 14.644 9.29076 14.553L7.5799 12.8422C7.42927 12.6912 7.42891 12.4464 7.5799 12.2954L10.0083 9.86624C10.1331 9.74113 10.3272 9.71704 10.4793 9.80728C11.1691 10.2182 11.9611 10.435 12.7693 10.4353C13.961 10.4353 15.0801 9.97265 15.9203 9.13214C16.7633 8.29055 17.2271 7.16891 17.2271 5.97465ZM14.7113 4.02437C15.7858 5.10071 15.7858 6.85003 14.7117 7.92458C14.1911 8.44441 13.4987 8.73058 12.7621 8.73058C12.0255 8.73058 11.3331 8.44441 10.8132 7.92458C9.73834 6.8486 9.73798 5.09927 10.8129 4.02473C11.3331 3.50489 12.0255 3.21873 12.7625 3.21873C13.4987 3.21873 14.1911 3.50489 14.7113 4.02437ZM14.1649 4.5708C13.791 4.19728 13.2927 3.99165 12.7625 3.99165C12.2318 3.99165 11.7336 4.19764 11.3593 4.57152C10.586 5.34445 10.5864 6.60342 11.36 7.37814C11.7339 7.75166 12.2318 7.95765 12.7621 7.95765C13.2924 7.95765 13.791 7.75166 14.1652 7.37778C14.9381 6.6045 14.9381 5.34517 14.1649 4.5708Z" fill="#7A7979"/>
</svg>
