<svg width="15" height="24" viewBox="0 0 15 24" fill="none" xmlns="http://www.w3.org/2000/svg">
<path d="M7.5 23.4854C7.06204 23.4854 6.45985 23.4307 5.85766 23.3759C2.51825 23.0201 0 20.2828 0 16.9161V6.56934C0 3.20255 2.49088 0.465329 5.85766 0.109489C6.45985 0.0547446 7.06204 0 7.5 0C7.93796 0 8.54015 0.0547446 9.14234 0.109489C12.5091 0.465329 15 3.20255 15 6.56934V16.8887C15 20.2555 12.5091 22.9927 9.14234 23.3485C8.56752 23.4307 7.96533 23.4854 7.5 23.4854ZM7.5 1.01277C7.06204 1.01277 6.54197 1.06752 5.93978 1.12226C3.09307 1.42336 0.985402 3.77737 0.985402 6.56934V16.8887C0.985402 19.7354 3.09307 22.0894 5.93978 22.3358C6.54197 22.3905 7.08942 22.4453 7.5 22.4453C7.91058 22.4453 8.45803 22.3905 9.06022 22.3358C11.8522 22.0347 14.0146 19.6807 14.0146 16.8887V6.56934C14.0146 3.72263 11.9069 1.36861 9.06022 1.12226C8.45803 1.04015 7.96533 1.01277 7.5 1.01277Z" fill="#F3EDEC"/>
<path d="M7.50004 19.9818C8.33149 19.9818 9.00552 19.3077 9.00552 18.4763C9.00552 17.6448 8.33149 16.9708 7.50004 16.9708C6.66859 16.9708 5.99457 17.6448 5.99457 18.4763C5.99457 19.3077 6.66859 19.9818 7.50004 19.9818Z" fill="#F3EDEC"/>
</svg>
