<svg width="13" height="16" viewBox="0 0 13 16" fill="none" xmlns="http://www.w3.org/2000/svg">
<path d="M6.28671 16.001C6.28675 16.001 6.28675 16.001 6.28682 16.001C6.40963 16.0009 6.52373 15.9376 6.58864 15.8333C7.22843 14.8056 8.11272 13.7289 8.96787 12.6876C9.53414 11.9981 10.1197 11.2851 10.6361 10.5851C11.5156 9.39269 12.5253 7.82363 12.5253 6.26136C12.5253 2.80884 9.71642 0 6.26391 0C2.80998 0 2.95639e-05 2.80884 2.95639e-05 6.26136C2.95639e-05 7.93552 1.07221 9.60208 2.68204 11.5893C2.96455 11.9381 3.2598 12.2929 3.54534 12.6361C4.42044 13.6879 5.32539 14.7755 5.98485 15.8335C6.04983 15.9376 6.16393 16.001 6.28671 16.001ZM6.26391 0.711317C9.32418 0.711317 11.8139 3.20105 11.8139 6.26132C11.8139 7.3185 11.2741 8.52175 10.0636 10.1628C9.55825 10.848 8.97868 11.5537 8.41817 12.2361C7.6741 13.1422 6.90829 14.0746 6.28653 14.9934C5.64525 14.0476 4.85753 13.1009 4.09222 12.1811C3.80818 11.8397 3.51443 11.4867 3.23487 11.1416C1.72022 9.2718 0.711452 7.72635 0.711452 6.26132C0.711381 3.20105 3.20222 0.711317 6.26391 0.711317Z" fill="#5B5A5A"/>
<path d="M6.26167 9.664C8.08511 9.664 9.5686 8.14281 9.5686 6.27302C9.5686 4.4043 8.08515 2.88403 6.26167 2.88403C4.43936 2.88403 2.95676 4.40433 2.95676 6.27302C2.95676 8.14281 4.43933 9.664 6.26167 9.664ZM6.26167 3.59535C7.69287 3.59535 8.85725 4.79654 8.85725 6.27299C8.85725 7.75054 7.69287 8.95261 6.26167 8.95261C4.83157 8.95261 3.66812 7.75054 3.66812 6.27299C3.66812 4.79654 4.83157 3.59535 6.26167 3.59535Z" fill="#5B5A5A"/>
</svg>
