<svg width="70" height="28" viewBox="0 0 70 28" fill="none" xmlns="http://www.w3.org/2000/svg">
<path d="M27.5933 12.9598H27.8716C27.9025 13.5648 28.1602 14.0637 28.655 14.4458C29.1497 14.8279 29.7682 15.0296 30.5104 15.0296C31.2319 15.0296 31.8298 14.8385 32.2936 14.4564C32.7575 14.0743 32.9843 13.586 32.9843 12.9917C32.9843 12.5246 32.8296 12.1531 32.5101 11.8666C32.1906 11.58 31.6752 11.3465 30.9536 11.166L30.0156 10.9219C29.2528 10.7309 28.6962 10.4655 28.3457 10.1471C27.9953 9.82865 27.82 9.40409 27.82 8.89461C27.82 8.26838 28.0777 7.73768 28.5828 7.31311C29.0879 6.88855 29.7064 6.67627 30.4176 6.67627C31.1701 6.67627 31.7989 6.87794 32.3143 7.28127C32.8296 7.68461 33.0977 8.18347 33.1183 8.77786H32.84C32.809 8.25777 32.572 7.82259 32.1081 7.47233C31.6546 7.12206 31.0876 6.95224 30.4176 6.95224C29.7682 6.95224 29.2219 7.13268 28.7787 7.50417C28.3251 7.87566 28.1087 8.33207 28.1087 8.89461C28.1087 9.3404 28.2633 9.69067 28.5828 9.96664C28.9024 10.2426 29.4074 10.4655 30.1084 10.6459L31.0361 10.8794C31.8092 11.0811 32.3864 11.3465 32.7369 11.6755C33.0977 12.0045 33.2729 12.4397 33.2729 12.9704C33.2729 13.6497 33.0152 14.2017 32.4998 14.6368C31.9844 15.072 31.3247 15.2843 30.5001 15.2843C29.6754 15.2843 28.9951 15.0614 28.4488 14.6262C27.9128 14.2017 27.6139 13.6391 27.5933 12.9598Z" fill="#7A7979"/>
<path d="M42.0346 6.80371V15.1782H41.7563V7.4724H41.7357L38.4475 15.1782H38.1485L34.8603 7.4724H34.8397V15.1782H34.5614V6.80371H34.8603L38.2928 14.8173H38.3135L41.7253 6.80371H42.0346Z" fill="#7A7979"/>
<path d="M49.3841 15.1782L48.3224 12.27H44.5394L43.4571 15.1782H43.1478L46.2814 6.80371H46.57L49.7036 15.1782H49.3841ZM46.4154 7.19643L44.6425 11.994H48.2193L46.4463 7.19643H46.4154Z" fill="#7A7979"/>
<path d="M51.0851 11.5164V15.1782H50.7965V6.80371H53.3219C54.1363 6.80371 54.7753 7.01599 55.2392 7.42994C55.7031 7.85451 55.9401 8.42766 55.9401 9.16004C55.9401 9.77565 55.7649 10.2851 55.4247 10.6885C55.0846 11.0918 54.6001 11.3572 53.9919 11.4633L56.136 15.1782H55.8164L53.693 11.5058C53.559 11.5164 53.4353 11.5164 53.3219 11.5164H51.0851ZM51.0851 7.06906V11.251H53.3219C54.0435 11.251 54.6207 11.06 55.033 10.6885C55.4454 10.317 55.6515 9.8075 55.6515 9.16004C55.6515 8.50196 55.4454 7.99249 55.033 7.62099C54.6207 7.2495 54.0435 7.06906 53.3116 7.06906H51.0851Z" fill="#7A7979"/>
<path d="M59.8984 15.1782H59.6201V7.07968H56.6824V6.80371H62.8258V7.07968H59.8881L59.8984 15.1782Z" fill="#7A7979"/>
<path d="M31.2426 16.0271C32.3352 16.0271 33.2114 16.4198 33.8505 17.1946C34.4999 17.9695 34.8194 19.0203 34.8194 20.3364C34.8194 21.6526 34.4999 22.7034 33.8505 23.4782C33.2011 24.253 32.3352 24.6457 31.2323 24.6457C30.1293 24.6457 29.2635 24.253 28.6141 23.4782C27.9647 22.7034 27.6451 21.6526 27.6451 20.3364C27.6451 19.0203 27.9647 17.9801 28.6141 17.1946C29.2635 16.4092 30.1293 16.0271 31.2426 16.0271ZM31.2426 16.2925C30.2324 16.2925 29.4284 16.6533 28.8305 17.3857C28.2327 18.1075 27.9338 19.0946 27.9338 20.3258C27.9338 21.557 28.2327 22.5335 28.8305 23.2659C29.4284 23.9983 30.2324 24.3592 31.2426 24.3592C32.2424 24.3592 33.0465 23.9983 33.6443 23.2659C34.2422 22.5335 34.5411 21.557 34.5411 20.3258C34.5411 19.0946 34.2422 18.1181 33.6443 17.3857C33.0465 16.6639 32.2424 16.2925 31.2426 16.2925Z" fill="#7A7979"/>
<path d="M36.4483 20.8567V24.5186H36.1597V16.144H38.6851C39.4994 16.144 40.1385 16.3563 40.6024 16.7703C41.0662 17.1948 41.3033 17.768 41.3033 18.5004C41.3033 19.116 41.1281 19.6255 40.7879 20.0288C40.4374 20.4321 39.9633 20.6975 39.3551 20.8036L41.4991 24.5186H41.1796L39.0562 20.8461C38.9222 20.8567 38.7985 20.8567 38.6851 20.8567H36.4483ZM36.4483 16.4094V20.5913H38.6851C39.4066 20.5913 39.9839 20.4003 40.3962 20.0288C40.8085 19.6573 41.0147 19.1478 41.0147 18.5004C41.0147 17.8423 40.8085 17.3328 40.3962 16.9613C39.9839 16.5898 39.4066 16.4094 38.6748 16.4094H36.4483Z" fill="#7A7979"/>
<path d="M48.4262 24.5186L47.3645 21.6103H43.5816L42.5096 24.5186H42.2003L45.3339 16.144H45.6225L48.7561 24.5186H48.4262ZM45.4679 16.5368L43.6846 21.3343H47.2615L45.4885 16.5368H45.4679Z" fill="#7A7979"/>
<path d="M50.1268 24.5186H49.8381V16.144H50.1474L55.5487 23.9666H55.5693V16.144H55.8476V24.5186H55.5899L50.1474 16.6323H50.1268V24.5186Z" fill="#7A7979"/>
<path d="M63.939 21.2387C63.939 22.2895 63.6504 23.1174 63.0731 23.7224C62.4959 24.3274 61.7022 24.6246 60.7023 24.6246C60.022 24.6246 59.4138 24.4442 58.8778 24.0727C58.3418 23.7118 57.9295 23.1917 57.6409 22.5337C57.3419 21.8756 57.1976 21.1114 57.1976 20.2622C57.1976 18.9885 57.5172 17.959 58.1666 17.1842C58.8057 16.4093 59.6612 16.0166 60.7126 16.0166C61.5166 16.0166 62.2072 16.2501 62.7948 16.7065C63.3823 17.1629 63.7431 17.7573 63.8977 18.5003H63.6194C63.4648 17.8316 63.1143 17.3009 62.5886 16.8976C62.0629 16.4942 61.4342 16.2926 60.7126 16.2926C59.7437 16.2926 58.9603 16.6534 58.3727 17.3858C57.7852 18.1182 57.4966 19.0735 57.4966 20.2729C57.4966 21.4829 57.7955 22.47 58.3933 23.2236C58.9912 23.9772 59.7643 24.3593 60.7229 24.3593C61.6403 24.3593 62.3619 24.0833 62.8876 23.5314C63.4133 22.9794 63.6813 22.2152 63.6813 21.26V20.6762H60.692V20.4108H63.9596V21.2387H63.939Z" fill="#7A7979"/>
<path d="M70.0006 24.2426V24.5186H65.3414V16.144H70.0006V16.42H65.6301V20.0925H69.8047V20.3578H65.6301V24.2532H70.0006V24.2426Z" fill="#7A7979"/>
<path d="M23.8004 18.0652L23.6973 17.4708L24.9239 15.1676L23.7385 13.2146L24.2024 12.0152L23.0685 11.113L22.9139 8.67177L20.6874 7.6422L20.2751 6.65509L19.6154 6.4322L18.6361 4.82947L16.5643 4.92499L14.8119 3.32227L13.2142 3.88481L12.6988 3.59823L11.431 4.23508L8.988 3.69376L8.00876 4.75517L7.33875 4.65964L6.38012 6.17746L3.65884 7.05843L3.08161 9.57397L2.59714 9.94546L2.56621 10.508L2.31883 10.7521L2.33944 11.0918L0.690186 12.9492L1.41173 14.9129L0.813881 16.0592L1.44266 17.2055L1.02004 19.1266L2.66929 20.8567L2.85483 22.3746L3.91654 22.9159L4.65871 25.2404L7.16351 25.6862L8.00876 26.8112L9.21477 26.7688L10.6888 27.8833L12.5957 27.1403L14.7295 28L15.6469 27.1934L16.4715 27.3632L17.8218 25.8135L20.2339 25.5163L20.8626 23.8924L21.3162 23.6907L21.7285 22.3215L23.9035 20.8249L23.6354 18.3306L23.8004 18.0652Z" fill="#727376"/>
<path d="M21.244 20.3579L20.708 21.4618L21.78 19.0417L21.244 20.3579Z" fill="#898A8D"/>
<path d="M17.4503 25.1341L16.6979 25.442L18.8419 23.8286L17.4503 25.1341Z" fill="#A0A1A3"/>
<path d="M23.2024 13.8938L22.2953 10.9644L23.1199 12.514L23.2024 13.8938Z" fill="#8D8E91"/>
<path d="M7.51367 25.2086L6.71997 24.7522L9.34847 25.7181L7.51367 25.2086Z" fill="#6C6E70"/>
<path d="M23.8006 18.0652L23.0172 19.2434L23.5738 16.6111L23.8006 18.0652Z" fill="#F2F2F2"/>
<path d="M2.33946 11.9516L2.31885 10.7522L3.62794 9.43604L2.33946 11.9516Z" fill="#E5E5E5"/>
<path d="M18.4819 24.9431L20.193 23.9666L21.3166 23.6907L18.4819 24.9431Z" fill="#A0A0A0"/>
<path d="M21.3164 23.6907L20.1929 23.9667L21.8834 21.812L21.3164 23.6907Z" fill="#CCCCCC"/>
<path d="M18.894 6.30493L20.2753 6.6552L20.935 8.2367L18.894 6.30493Z" fill="#D8D8D8"/>
<path d="M17.3679 5.66797L20.2747 6.65508L18.8935 6.30481L17.3679 5.66797Z" fill="#F2F2F2"/>
<path d="M2.77246 20.4746L4.4011 23.1494L2.85492 22.3745L2.77246 20.4746Z" fill="#999999"/>
<path d="M2.77173 20.4746L2.85419 22.3745L2.42126 18.978L2.77173 20.4746Z" fill="#A5A5A5"/>
<path d="M16.4719 27.3632L13.5857 26.7476L15.4411 26.8325L16.4719 27.3632Z" fill="#BFBFBF"/>
<path d="M16.4719 27.3632L15.4412 26.8325L17.9666 25.6543L16.4719 27.3632Z" fill="#D8D8D8"/>
<path d="M1.79382 17.4177L2.4226 18.978L0.814575 16.0591L1.79382 17.4177Z" fill="#BFBFBF"/>
<path d="M1.56705 14.5837L1.79382 17.4177L0.814575 16.0591L1.56705 14.5837Z" fill="#D8D8D8"/>
<path d="M13.5852 26.7476L10.6887 27.8833L12.6472 27.0129L13.5852 26.7476Z" fill="#CCCCCC"/>
<path d="M14.8119 3.32227L17.3682 5.66798L16.3581 4.93561L14.8119 3.32227Z" fill="#E5E5E5"/>
<path d="M24.9242 15.1676L23.5635 13.6711L23.1306 12.2275L24.9242 15.1676Z" fill="#E5E5E5"/>
<path d="M23.5636 13.671L22.6978 10.8052L23.1307 12.2275L23.5636 13.671Z" fill="#808183"/>
<path d="M23.1307 12.2276L22.6978 10.8053L22.9142 8.67188L23.1307 12.2276Z" fill="#D8D8D8"/>
<path d="M10.6889 27.8834L9.60657 26.4929L12.6474 27.013L10.6889 27.8834Z" fill="#999999"/>
<path d="M10.6883 27.8832L7.98767 25.8347L9.606 26.4928L10.6883 27.8832Z" fill="#999999"/>
<path d="M8.49307 5.03122L6.85413 6.02895L8.98785 3.69385L8.49307 5.03122Z" fill="#F2F2F2"/>
<path d="M8.98767 3.69385L11.8945 4.34131L10.9771 4.44745L8.98767 3.69385Z" fill="#F2F2F2"/>
<path d="M8.49365 5.03122L8.98843 3.69385L10.9778 4.44745L8.49365 5.03122Z" fill="#E5E5E5"/>
<path d="M13.6368 4.3306L14.8119 3.32227L16.3581 4.93561L13.6368 4.3306Z" fill="#F2F2F2"/>
<path d="M11.8947 4.34118L13.6367 4.33057L10.9773 4.44732L11.8947 4.34118Z" fill="#9C9EA0"/>
<path d="M11.8949 4.34122L14.812 3.32227L13.6369 4.3306L11.8949 4.34122Z" fill="#E5E5E5"/>
<path d="M6.08105 6.63398L6.85414 6.02897L8.49309 5.03125L6.08105 6.63398Z" fill="#B9B9BA"/>
<path d="M6.08079 6.63381L3.65845 7.05838L6.85387 6.02881L6.08079 6.63381Z" fill="#E5E5E5"/>
<path d="M24.924 15.1675L23.5221 16.2183L23.5633 13.6709L24.924 15.1675Z" fill="#F2F2F2"/>
<path d="M23.5633 17.7467L23.5221 16.2183L24.924 15.1675L23.5633 17.7467Z" fill="#E5E5E5"/>
<path d="M15.4412 26.8325L17.1007 25.8984L17.9666 25.6543L15.4412 26.8325Z" fill="#BFBFBF"/>
<path d="M1.74152 15.8574L1.79306 17.4177L1.56628 14.5837L1.74152 15.8574Z" fill="#A5A5A5"/>
<path d="M7.98839 25.8348L6.82361 25.198L9.60673 26.4929L7.98839 25.8348Z" fill="#6E6F72"/>
<path d="M7.98788 25.8348L4.65845 25.2405L6.82309 25.198L7.98788 25.8348Z" fill="#999999"/>
<path d="M3.8646 9.10687L3.65845 7.05835L6.08079 6.63379L3.8646 9.10687Z" fill="#F2F2F2"/>
<path d="M3.86503 9.10687L2.85486 10.4973L3.65887 7.05835L3.86503 9.10687Z" fill="#E5E5E5"/>
<path d="M20.2336 7.44043L22.9137 8.67166L21.2232 8.93701L20.2336 7.44043Z" fill="#E5E5E5"/>
<path d="M21.2233 8.93723L22.9138 8.67188L22.6973 10.8053L21.2233 8.93723Z" fill="#F2F2F2"/>
<path d="M9.60657 26.4929L11.4311 26.684L12.6474 27.013L9.60657 26.4929Z" fill="#CCCCCC"/>
<path d="M23.9038 20.8249L22.9246 18.4155L23.5636 17.7468L23.9038 20.8249Z" fill="#D8D8D8"/>
<path d="M22.9246 18.4154L23.5224 16.2183L23.5636 17.7467L22.9246 18.4154Z" fill="#CCCCCC"/>
<path d="M2.51514 11.7392L2.85529 10.4974L3.86546 9.10693L2.51514 11.7392Z" fill="#B9BABA"/>
<path d="M2.51467 11.7392L0.690186 12.9492L2.85483 10.4973L2.51467 11.7392Z" fill="#F2F2F2"/>
<path d="M13.6368 4.33057L16.3581 4.93557L15.4407 5.08417L13.6368 4.33057Z" fill="#CCCCCC"/>
<path d="M15.4412 5.08433L16.3586 4.93573L18.6366 4.82959L15.4412 5.08433Z" fill="#F2F2F2"/>
<path d="M8.49365 5.03104L10.9778 4.44727L10.2254 5.05227L8.49365 5.03104Z" fill="#CCCCCC"/>
<path d="M3.8645 9.10687L6.08069 6.63379L5.35914 7.81195L3.8645 9.10687Z" fill="#E5E5E5"/>
<path d="M4.84399 22.8945L6.82309 25.1978L4.65845 25.2402L4.84399 22.8945Z" fill="#A5A5A5"/>
<path d="M4.84404 22.8948L4.6585 25.2405L3.57617 21.8228L4.84404 22.8948Z" fill="#B2B2B2"/>
<path d="M23.9038 20.8249L21.8423 20.6445L22.9246 18.4155L23.9038 20.8249Z" fill="#E5E5E5"/>
<path d="M21.3678 22.5763L21.842 20.6445L23.9035 20.825L21.3678 22.5763Z" fill="#F2F2F2"/>
<path d="M23.5634 13.6709L22.9965 14.1486L24.2025 12.0151L23.5634 13.6709Z" fill="#CCCCCC"/>
<path d="M23.5222 16.2183L22.9965 14.1485L23.5634 13.6709L23.5222 16.2183Z" fill="#D8D8D8"/>
<path d="M22.0891 11.1661L22.6973 10.8052L24.2022 12.0152L22.0891 11.1661Z" fill="#E5E5E5"/>
<path d="M22.0891 11.166L24.2022 12.0151L22.9962 14.1486L22.0891 11.166Z" fill="#F2F2F2"/>
<path d="M21.2233 8.93726L22.6973 10.8053L22.0891 11.1662L21.2233 8.93726Z" fill="#CCCCCC"/>
<path d="M2.51467 11.7393L2.2879 14.2866L0.690186 12.9493L2.51467 11.7393Z" fill="#D8D8D8"/>
<path d="M2.2879 14.2866L1.74159 15.8575L0.690186 12.9492L2.2879 14.2866Z" fill="#B2B2B2"/>
<path d="M20.2339 7.44043L21.2234 8.93701L19.4917 7.65271L20.2339 7.44043Z" fill="#CCCCCC"/>
<path d="M18.6362 4.82959L20.2339 7.44066L19.4918 7.65294L18.6362 4.82959Z" fill="#E5E5E5"/>
<path d="M10.2249 5.05227L10.9773 4.44727L12.6987 3.59814L10.2249 5.05227Z" fill="#D8D8D8"/>
<path d="M20.2336 25.5163L20.3161 22.5868L21.3675 22.5762L20.2336 25.5163Z" fill="#D8D8D8"/>
<path d="M20.316 22.5869L21.8416 20.6445L21.3674 22.5763L20.316 22.5869Z" fill="#E5E5E5"/>
<path d="M14.7293 28L11.4308 26.6838L13.4511 26.238L14.7293 28Z" fill="#A5A5A5"/>
<path d="M14.7291 27.9999L13.4509 26.238L16.1516 25.4844L14.7291 27.9999Z" fill="#CCCCCC"/>
<path d="M14.7295 27.9999L16.152 25.4844L17.1003 25.8983L14.7295 27.9999Z" fill="#E5E5E5"/>
<path d="M17.1002 25.8985L18.3269 24.2427L20.2338 25.5164L17.1002 25.8985Z" fill="#CCCCCC"/>
<path d="M20.234 25.5164L18.327 24.2427L20.3164 22.5869L20.234 25.5164Z" fill="#E5E5E5"/>
<path d="M16.1521 25.4845L18.327 24.2427L17.1004 25.8985L16.1521 25.4845Z" fill="#D8D8D8"/>
<path d="M3.39082 19.9864L3.57636 21.8227L1.02002 19.1267L3.39082 19.9864Z" fill="#B2B2B2"/>
<path d="M4.84415 22.8946L3.57629 21.8226L3.39075 19.9863L4.84415 22.8946Z" fill="#999999"/>
<path d="M2.54558 17.0144L3.39082 19.9864L1.02002 19.1266L2.54558 17.0144Z" fill="#999999"/>
<path d="M2.54595 17.0144L1.74194 15.8575L2.28826 14.2866L2.54595 17.0144Z" fill="#D8D8D8"/>
<path d="M2.54558 17.0144L1.02002 19.1266L1.74157 15.8574L2.54558 17.0144Z" fill="#F2F2F2"/>
<path d="M17.255 6.63399L18.6363 4.82959L19.4918 7.65294L17.255 6.63399Z" fill="#F2F2F2"/>
<path d="M15.4412 5.08433L18.6366 4.82959L17.2553 6.63399L15.4412 5.08433Z" fill="#E5E5E5"/>
<path d="M7.41088 7.03722L5.35962 7.81205L7.33873 4.65967L7.41088 7.03722Z" fill="#D8D8D8"/>
<path d="M11.4312 26.6839L8.00903 26.8113L10.5035 25.7393L11.4312 26.6839Z" fill="#A5A5A5"/>
<path d="M11.431 26.6839L10.5033 25.7393L13.4513 26.2381L11.431 26.6839Z" fill="#999999"/>
<path d="M6.64775 23.68L6.82298 25.1978L4.84387 22.8945L6.64775 23.68Z" fill="#999999"/>
<path d="M6.64795 23.6802L8.00858 26.8113L6.82318 25.198L6.64795 23.6802Z" fill="#BFBFBF"/>
<path d="M7.41102 7.03722L7.33887 4.65967L9.93644 6.10318L7.41102 7.03722Z" fill="#E5E5E5"/>
<path d="M7.33887 4.65967L10.2251 5.05239L9.93645 6.10318L7.33887 4.65967Z" fill="#D8D8D8"/>
<path d="M2.5976 9.94556L3.35007 12.8326L2.51514 11.7393L2.5976 9.94556Z" fill="#D8D8D8"/>
<path d="M3.34943 12.8325L2.28772 14.2866L2.51449 11.7393L3.34943 12.8325Z" fill="#BFBFBF"/>
<path d="M15.4413 5.08423L17.2555 6.63389L14.8331 6.13502L15.4413 5.08423Z" fill="#CCCCCC"/>
<path d="M12.6985 3.59814L15.4404 5.08412L14.8322 6.13491L12.6985 3.59814Z" fill="#D8D8D8"/>
<path d="M5.29797 9.42528L5.35982 7.81194L7.41108 7.03711L5.29797 9.42528Z" fill="#F2F2F2"/>
<path d="M5.29819 9.42535L2.59753 9.94544L5.36003 7.81201L5.29819 9.42535Z" fill="#D8D8D8"/>
<path d="M10.2249 5.05228L12.6987 3.59814L12.2864 5.98631L10.2249 5.05228Z" fill="#F2F2F2"/>
<path d="M12.2863 5.98631L12.6986 3.59814L14.8323 6.13491L12.2863 5.98631Z" fill="#E5E5E5"/>
<path d="M10.2255 5.05225L12.2871 5.98628L9.93689 6.10304L10.2255 5.05225Z" fill="#E5E5E5"/>
<path d="M22.0896 11.166L22.9967 14.1486L21.5227 12.9916L22.0896 11.166Z" fill="#E5E5E5"/>
<path d="M21.5227 12.9917L22.9967 14.1486L23.6461 16.2927L21.5227 12.9917Z" fill="#CCCCCC"/>
<path d="M21.8418 20.6445L21.6562 18.2351L22.9241 18.4155L21.8418 20.6445Z" fill="#D8D8D8"/>
<path d="M22.9241 18.4155L21.6562 18.2351L23.6457 16.2927L22.9241 18.4155Z" fill="#F2F2F2"/>
<path d="M19.4917 7.65283L21.2234 8.93714L21.4502 9.16003L19.4917 7.65283Z" fill="#E5E5E5"/>
<path d="M21.4502 9.15991L22.0893 11.166L21.5224 12.9916L21.4502 9.15991Z" fill="#D8D8D8"/>
<path d="M8.73014 24.0198L8.00859 26.8113L6.64795 23.6802L8.73014 24.0198Z" fill="#A5A5A5"/>
<path d="M8.73058 24.0198L10.5035 25.7393L8.00903 26.8113L8.73058 24.0198Z" fill="#BFBFBF"/>
<path d="M17.255 6.63379L19.4918 7.65274L18.6878 8.73538L17.255 6.63379Z" fill="#E5E5E5"/>
<path d="M18.6874 8.73547L19.4914 7.65283L21.4499 9.16003L18.6874 8.73547Z" fill="#F2F2F2"/>
<path d="M13.4509 26.238L14.5126 24.699L16.1516 25.4844L13.4509 26.238Z" fill="#D8D8D8"/>
<path d="M13.4513 26.238L12.4412 26.5883L14.513 24.699L13.4513 26.238Z" fill="#E5E5E5"/>
<path d="M4.11245 18.2032L3.3909 19.9864L2.54565 17.0144L4.11245 18.2032Z" fill="#BFBFBF"/>
<path d="M4.86526 11.8349L3.35001 12.8326L2.59753 9.94556L4.86526 11.8349Z" fill="#CCCCCC"/>
<path d="M5.29819 9.42529L4.86526 11.8347L2.59753 9.94539L5.29819 9.42529Z" fill="#E5E5E5"/>
<path d="M18.327 24.2428L18.6363 22.0244L20.3164 22.587L18.327 24.2428Z" fill="#D8D8D8"/>
<path d="M21.522 12.9917L23.6454 16.2927L20.7283 15.0296L21.522 12.9917Z" fill="#F2F2F2"/>
<path d="M20.7283 15.0295L23.6454 16.2926L21.656 18.235L20.7283 15.0295Z" fill="#D8D8D8"/>
<path d="M7.41138 7.03731L9.9368 6.10327L9.26679 7.98197L7.41138 7.03731Z" fill="#D8D8D8"/>
<path d="M21.5222 12.9918L20.7285 15.0297L19.6978 11.6226L21.5222 12.9918Z" fill="#CCCCCC"/>
<path d="M21.4501 9.15991L21.5222 12.9916L19.6978 11.6224L21.4501 9.15991Z" fill="#F2F2F2"/>
<path d="M18.6874 8.73535L21.4499 9.15992L19.6975 11.6224L18.6874 8.73535Z" fill="#D8D8D8"/>
<path d="M4.2157 21.759L6.64835 23.6802L4.84448 22.8947L4.2157 21.759Z" fill="#A5A5A5"/>
<path d="M4.1123 18.2034L4.21537 21.7591L3.39075 19.9865L4.1123 18.2034Z" fill="#A5A5A5"/>
<path d="M11.4619 24.1685L12.4412 26.5885L10.5033 25.7393L11.4619 24.1685Z" fill="#B2B2B2"/>
<path d="M11.4618 24.1684L10.5032 25.7393L8.73022 24.0198L11.4618 24.1684Z" fill="#999999"/>
<path d="M11.462 24.1685L14.5132 24.6992L12.4413 26.5885L11.462 24.1685Z" fill="#D8D8D8"/>
<path d="M2.46326 15.2207L4.11251 18.2033L2.54572 17.0145L2.46326 15.2207Z" fill="#B2B2B2"/>
<path d="M3.34943 12.8325L2.46295 15.2207L2.28772 14.2867L3.34943 12.8325Z" fill="#F2F2F2"/>
<path d="M2.46295 15.2207L2.54542 17.0144L2.28772 14.2866L2.46295 15.2207Z" fill="#A5A5A5"/>
<path d="M6.41138 7.65273L7.41124 7.03711L9.26665 7.98177L6.41138 7.65273Z" fill="#E5E5E5"/>
<path d="M20.3164 22.5867L18.6362 22.0242L21.1926 20.7505L20.3164 22.5867Z" fill="#CCCCCC"/>
<path d="M21.8423 20.6445L21.1929 20.7506L21.6567 18.2351L21.8423 20.6445Z" fill="#CCCCCC"/>
<path d="M20.316 22.5869L21.1922 20.7507L21.8416 20.6445L20.316 22.5869Z" fill="#D8D8D8"/>
<path d="M12.2863 5.98633L14.8323 6.13492L14.0386 7.6209L12.2863 5.98633Z" fill="#D8D8D8"/>
<path d="M7.54513 21.8864L6.64835 23.6802L4.2157 21.759L7.54513 21.8864Z" fill="#BFBFBF"/>
<path d="M8.73014 24.0199L6.64795 23.6803L7.54473 21.8865L8.73014 24.0199Z" fill="#999999"/>
<path d="M7.08069 10.4549L4.8645 11.8347L5.29743 9.42529L7.08069 10.4549Z" fill="#D8D8D8"/>
<path d="M6.41138 7.65283L9.26665 7.98187L7.08139 10.4549L6.41138 7.65283Z" fill="#D8D8D8"/>
<path d="M6.41122 7.65283L7.08123 10.4549L5.29797 9.42538L6.41122 7.65283Z" fill="#E5E5E5"/>
<path d="M16.152 25.4845L14.5131 24.6991L17.1622 24.4443L16.152 25.4845Z" fill="#BFBFBF"/>
<path d="M18.3267 24.2428L17.1619 24.4444L18.6359 22.0244L18.3267 24.2428Z" fill="#BFBFBF"/>
<path d="M16.1521 25.4845L17.1623 24.4443L18.327 24.2427L16.1521 25.4845Z" fill="#E5E5E5"/>
<path d="M5.22539 14.0743L3.34937 12.8324L4.86462 11.8347L5.22539 14.0743Z" fill="#BFBFBF"/>
<path d="M5.22576 14.0744L2.46326 15.2207L3.34973 12.8325L5.22576 14.0744Z" fill="#E5E5E5"/>
<path d="M14.0387 7.62099L14.8324 6.13501L16.9558 7.19642L14.0387 7.62099Z" fill="#F2F2F2"/>
<path d="M14.8331 6.13501L17.2555 6.63387L16.9565 7.19642L14.8331 6.13501Z" fill="#D8D8D8"/>
<path d="M16.9557 7.19633L17.2546 6.63379L18.6874 8.73538L16.9557 7.19633Z" fill="#CCCCCC"/>
<path d="M20.7288 15.0295L21.6565 18.235L19.4094 17.163L20.7288 15.0295Z" fill="#E5E5E5"/>
<path d="M19.4094 17.1631L21.6565 18.2351L21.1927 20.7506L19.4094 17.1631Z" fill="#F2F2F2"/>
<path d="M6.43193 19.3603L4.21575 21.7591L4.11267 18.2034L6.43193 19.3603Z" fill="#BFBFBF"/>
<path d="M6.43188 19.3601L7.54513 21.8863L4.2157 21.7589L6.43188 19.3601Z" fill="#A5A5A5"/>
<path d="M18.6879 8.73535L19.698 11.6224L17.3582 10.6459L18.6879 8.73535Z" fill="#E5E5E5"/>
<path d="M16.9557 7.19629L18.6874 8.73533L17.3577 10.6459L16.9557 7.19629Z" fill="#F2F2F2"/>
<path d="M13.6368 22.6824L17.1621 24.4443L14.513 24.699L13.6368 22.6824Z" fill="#A5A5A5"/>
<path d="M13.637 22.6824L14.5132 24.699L11.462 24.1683L13.637 22.6824Z" fill="#BFBFBF"/>
<path d="M6.43193 19.3602L4.11267 18.2033L5.71039 16.7173L6.43193 19.3602Z" fill="#999999"/>
<path d="M5.22576 14.0742L5.71023 16.7171L2.46326 15.2205L5.22576 14.0742Z" fill="#B2B2B2"/>
<path d="M5.71023 16.7173L4.11251 18.2033L2.46326 15.2207L5.71023 16.7173Z" fill="#A5A5A5"/>
<path d="M11.5649 6.6444L12.2865 5.98633L14.0388 7.6209L11.5649 6.6444Z" fill="#CCCCCC"/>
<path d="M9.93689 6.10308L12.2871 5.98633L11.5655 6.6444L9.93689 6.10308Z" fill="#D8D8D8"/>
<path d="M9.26685 7.98197L9.93686 6.10327L11.5655 6.64459L9.26685 7.98197Z" fill="#F2F2F2"/>
<path d="M19.4093 17.1631L21.1925 20.7506L17.76 19.201L19.4093 17.1631Z" fill="#E5E5E5"/>
<path d="M17.76 19.2009L21.1925 20.7506L18.6362 22.0243L17.76 19.2009Z" fill="#CCCCCC"/>
<path d="M15.7606 21.1433L18.6365 22.0243L17.1625 24.4443L15.7606 21.1433Z" fill="#CCCCCC"/>
<path d="M15.7603 21.1433L17.1621 24.4443L13.6368 22.6824L15.7603 21.1433Z" fill="#B2B2B2"/>
<path d="M17.7603 19.2009L18.6365 22.0243L15.7606 21.1433L17.7603 19.2009Z" fill="#BFBFBF"/>
<path d="M9.26685 7.98191L11.5655 6.64453L9.65854 10.1578L9.26685 7.98191Z" fill="#E5E5E5"/>
<path d="M9.2668 7.98193L9.6585 10.1578L7.08154 10.455L9.2668 7.98193Z" fill="#CCCCCC"/>
<path d="M14.0387 7.62085L16.9558 7.19629L14.8221 9.99841L14.0387 7.62085Z" fill="#D8D8D8"/>
<path d="M16.9559 7.19629L17.3579 10.6459L14.8221 9.99841L16.9559 7.19629Z" fill="#E5E5E5"/>
<path d="M11.5647 6.64453L12.1522 9.76507L9.65771 10.1578L11.5647 6.64453Z" fill="#BFBFBF"/>
<path d="M11.5649 6.64453L14.0388 7.62103L12.1525 9.76507L11.5649 6.64453Z" fill="#E5E5E5"/>
<path d="M14.039 7.62109L14.8224 9.99865L12.1527 9.76514L14.039 7.62109Z" fill="#CCCCCC"/>
<path d="M9.1631 20.0925L7.54477 21.8863L6.43152 19.3601L9.1631 20.0925Z" fill="#999999"/>
<path d="M15.7604 21.1434L13.6369 22.6825L12.3588 20.5066L15.7604 21.1434Z" fill="#A5A5A5"/>
<path d="M7.61749 15.0719L5.71054 16.7171L5.22607 14.0742L7.61749 15.0719Z" fill="#999999"/>
<path d="M9.94655 23.0645L11.4618 24.1683L8.73022 24.0197L9.94655 23.0645Z" fill="#BFBFBF"/>
<path d="M9.16382 20.0925L12.3593 20.5065L9.94721 23.0645L9.16382 20.0925Z" fill="#BFBFBF"/>
<path d="M12.3582 20.5066L13.6364 22.6825L9.94617 23.0646L12.3582 20.5066Z" fill="#999999"/>
<path d="M9.94617 23.0645L13.6364 22.6824L11.4614 24.1683L9.94617 23.0645Z" fill="#B2B2B2"/>
<path d="M9.16326 20.0925L9.94665 23.0645L7.54492 21.8863L9.16326 20.0925Z" fill="#A5A5A5"/>
<path d="M9.94665 23.0646L8.73033 24.0199L7.54492 21.8865L9.94665 23.0646Z" fill="#B2B2B2"/>
<path d="M19.4096 17.1631L17.7604 19.2011L16.5234 15.9744L19.4096 17.1631Z" fill="#CCCCCC"/>
<path d="M12.1522 9.76514L9.74018 12.546L9.65771 10.1579L12.1522 9.76514Z" fill="#B2B2B2"/>
<path d="M17.3579 10.646L15.4612 12.8219L14.8221 9.99854L17.3579 10.646Z" fill="#D8D8D8"/>
<path d="M19.6977 11.6226L20.7285 15.0297L19.0277 13.4482L19.6977 11.6226Z" fill="#E5E5E5"/>
<path d="M17.3579 10.646L19.0278 13.4481L15.4613 12.8219L17.3579 10.646Z" fill="#E5E5E5"/>
<path d="M17.3582 10.646L19.698 11.6225L19.028 13.4481L17.3582 10.646Z" fill="#D8D8D8"/>
<path d="M19.0282 13.4482L19.4096 17.1632L16.5234 15.9744L19.0282 13.4482Z" fill="#F2F2F2"/>
<path d="M19.0277 13.4482L20.7285 15.0297L19.4091 17.1632L19.0277 13.4482Z" fill="#D8D8D8"/>
<path d="M15.4613 12.8218L19.0278 13.448L16.523 15.9742L15.4613 12.8218Z" fill="#D8D8D8"/>
<path d="M6.53455 12.3867L9.74029 12.5459L7.61687 15.0721L6.53455 12.3867Z" fill="#BFBFBF"/>
<path d="M9.65783 10.1577L9.74029 12.5459L6.53455 12.3867L9.65783 10.1577Z" fill="#D8D8D8"/>
<path d="M6.53517 12.3867L7.61749 15.0721L5.22607 14.0744L6.53517 12.3867Z" fill="#A5A5A5"/>
<path d="M6.53437 12.3867L5.22528 14.0743L4.8645 11.8347L6.53437 12.3867Z" fill="#B2B2B2"/>
<path d="M7.08069 10.4548L6.53437 12.3866L4.8645 11.8347L7.08069 10.4548Z" fill="#F2F2F2"/>
<path d="M7.08086 10.4549L9.65782 10.1577L6.53455 12.3867L7.08086 10.4549Z" fill="#E5E5E5"/>
<path d="M11.3079 17.8743L12.3593 20.5066L9.16382 20.0926L11.3079 17.8743Z" fill="#A5A5A5"/>
<path d="M9.74024 12.5459L10.3793 15.21L7.61682 15.0721L9.74024 12.5459Z" fill="#999999"/>
<path d="M13.4205 15.2736L11.3073 17.8741L10.3796 15.21L13.4205 15.2736Z" fill="#999999"/>
<path d="M15.4614 12.8218L16.5231 15.9742L13.4204 15.2736L15.4614 12.8218Z" fill="#CCCCCC"/>
<path d="M7.80225 17.9592L11.3069 17.8743L9.16288 20.0926L7.80225 17.9592Z" fill="#BFBFBF"/>
<path d="M7.80246 17.9592L9.1631 20.0927L6.43152 19.3603L7.80246 17.9592Z" fill="#A5A5A5"/>
<path d="M7.61716 15.072L7.8027 17.9591L5.71021 16.7172L7.61716 15.072Z" fill="#A5A5A5"/>
<path d="M7.8027 17.9591L6.43175 19.3602L5.71021 16.7173L7.8027 17.9591Z" fill="#BFBFBF"/>
<path d="M10.3792 15.21L11.3069 17.8741L7.80225 17.959L10.3792 15.21Z" fill="#A5A5A5"/>
<path d="M7.61682 15.072L10.3793 15.21L7.80236 17.9591L7.61682 15.072Z" fill="#B2B2B2"/>
<path d="M12.4205 11.8772L15.4613 12.8219L13.4204 15.2737L12.4205 11.8772Z" fill="#D8D8D8"/>
<path d="M14.8223 9.99854L15.4613 12.8219L12.4205 11.8772L14.8223 9.99854Z" fill="#F2F2F2"/>
<path d="M12.1527 9.76514L14.8224 9.99865L12.4207 11.8773L12.1527 9.76514Z" fill="#BFBFBF"/>
<path d="M12.4206 11.8772L13.4205 15.2737L10.3796 15.21L12.4206 11.8772Z" fill="#A5A5A5"/>
<path d="M12.1521 9.76514L12.4202 11.8773L9.74011 12.546L12.1521 9.76514Z" fill="#F2F2F2"/>
<path d="M9.74011 12.5459L12.4202 11.8772L10.3792 15.21L9.74011 12.5459Z" fill="#B2B2B2"/>
<path d="M16.5231 15.9744L17.76 19.2011L14.7295 18.6597L16.5231 15.9744Z" fill="#F2F2F2"/>
<path d="M14.7295 18.6597L17.76 19.201L15.7603 21.1434L14.7295 18.6597Z" fill="#D8D8D8"/>
<path d="M13.4207 15.2737L14.7298 18.6596L11.3076 17.8741L13.4207 15.2737Z" fill="#B2B2B2"/>
<path d="M13.4204 15.2737L16.5231 15.9742L14.7295 18.6596L13.4204 15.2737Z" fill="#D8D8D8"/>
<path d="M14.7296 18.6597L15.7604 21.1434L12.3588 20.5065L14.7296 18.6597Z" fill="#BFBFBF"/>
<path d="M11.3076 17.8743L14.7298 18.6597L12.359 20.5066L11.3076 17.8743Z" fill="#999999"/>
<path d="M2.59753 3.10986L4.98896 4.16066L5.87543 6.36839L2.59753 3.10986Z" fill="#727272"/>
<path d="M5.35965 3.23738L5.87504 6.36854L4.98857 4.16081L4.16394 2.29272L5.35965 3.23738Z" fill="#A5A5A5"/>
<path d="M0.845093 2.29272L2.59743 3.11001L4.98885 4.16081L4.16422 2.29272H0.845093Z" fill="#8C8C8C"/>
<path d="M2.73143 0.955322L4.16422 2.2927H0.845093L2.73143 0.955322Z" fill="#B2B2B2"/>
<path d="M0 0.955322H2.73158L0.845243 2.2927L0 0.955322Z" fill="#BFBFBF"/>
<path d="M2.73158 0.955268L4.57668 1.09325L2.90681 0L0 0.955268H2.73158Z" fill="#8C8C8C"/>
<path d="M5.45326 1.09325H4.5771L2.90723 0L5.45326 1.09325Z" fill="#A5A5A5"/>
<path d="M5.36007 3.23735L4.57667 1.0933L2.73157 0.955322L4.16436 2.2927L5.36007 3.23735Z" fill="#727272"/>
<path d="M6.38083 6.20925L5.36035 3.2373L5.87574 6.36846L6.38083 6.20925Z" fill="#727272"/>
<path d="M5.45295 1.09326L6.38065 6.20925L5.36018 3.23731L4.57678 1.09326H5.45295Z" fill="#8C8C8C"/>
</svg>
