<svg width="18" height="19" viewBox="0 0 18 19" fill="none" xmlns="http://www.w3.org/2000/svg">
<path d="M2.93083 14.9832C2.19744 15.8115 1.80981 16.7692 1.80981 17.7765V18.62C1.80981 18.8299 1.97977 19 2.18981 19H15.2048C15.4149 19 15.5848 18.8299 15.5848 18.62V17.7765C15.5848 16.7695 15.1976 15.812 14.465 14.9841C16.2065 13.4086 17.3026 11.1321 17.3026 8.60418C17.3026 3.85975 13.4429 0 8.69843 0C3.95399 0 0.0942383 3.85975 0.0942383 8.60419C0.0942383 11.1316 1.18989 13.4077 2.93083 14.9832ZM14.8248 17.7765V18.24H2.56981V17.7765C2.56981 16.9522 2.89758 16.1605 3.51714 15.4681C4.95944 16.5595 6.75436 17.2084 8.69843 17.2084C10.642 17.2084 12.4365 16.5599 13.8786 15.469C14.4974 16.1609 14.8248 16.9522 14.8248 17.7765ZM8.69843 0.760001C13.0239 0.760001 16.5426 4.2789 16.5426 8.60419C16.5426 12.9295 13.0239 16.4484 8.69843 16.4484C4.37295 16.4484 0.854239 12.9295 0.854239 8.60419C0.854239 4.2789 4.37295 0.760001 8.69843 0.760001Z" fill="#7A7979"/>
<path d="M8.69849 13.0757C11.164 13.0757 13.1698 11.0697 13.1698 8.6042C13.1698 6.13846 11.164 4.13251 8.69849 4.13251C6.23294 4.13251 4.22681 6.13846 4.22681 8.6042C4.22681 11.0697 6.23294 13.0757 8.69849 13.0757ZM8.69849 4.89252C10.7451 4.89252 12.4098 6.55762 12.4098 8.6042C12.4098 10.6508 10.7451 12.3157 8.69849 12.3157C6.65191 12.3157 4.98681 10.6508 4.98681 8.6042C4.98681 6.55762 6.65191 4.89252 8.69849 4.89252Z" fill="#7A7979"/>
<path d="M8.38598 10.5834C9.74448 10.79 10.8832 9.63347 10.6779 8.29154C10.5483 7.44137 9.86368 6.75689 9.0135 6.62682C7.64409 6.41785 6.51813 7.58787 6.72163 8.91907C6.85188 9.76924 7.53618 10.4535 8.38598 10.5834ZM8.89847 7.3781C9.4154 7.45714 9.84773 7.88946 9.92677 8.4064C10.0561 9.25076 9.34203 9.96305 8.50103 9.83195C7.98446 9.75328 7.55177 9.32077 7.47273 8.80421C7.34372 7.95596 8.05889 7.25054 8.89847 7.3781Z" fill="#7A7979"/>
</svg>
