<svg width="138" height="37" viewBox="0 0 138 37" fill="none" xmlns="http://www.w3.org/2000/svg">
<path d="M53.6492 31.281L52.4137 29.7301H52.8869L54.096 31.2547V29.7301H54.4903V31.2547L55.6995 29.7301H56.1726L54.9372 31.281L56.2515 32.8318H55.7257L54.464 31.3072V32.8318H54.0697V31.3072L52.808 32.8318H52.3086L53.6492 31.281Z" fill="#323131"/>
<path d="M59.6685 32.8318H59.2742V30.4136L57.592 32.8318H57.2502V29.7564H57.6445V32.1484L59.3268 29.7564H59.6685V32.8318Z" fill="#323131"/>
<path d="M61.8766 30.1244H60.7726V29.7301H63.3749V30.1244H62.2972V32.8318H61.8766V30.1244Z" fill="#323131"/>
<path d="M64.1372 32.4638C64.4789 32.5164 64.5315 32.3324 64.6104 31.9907C64.7155 31.4387 64.7681 30.729 64.8206 29.7301H66.9235V32.8055H66.5029V30.1244H65.2149C65.1624 30.9392 65.0835 31.7541 64.9783 32.201C64.8732 32.7004 64.7155 32.9107 64.1372 32.8055V32.4638Z" fill="#323131"/>
<path d="M68.1063 31.281C68.1063 30.3084 68.6583 29.6512 69.5783 29.6512C70.4983 29.6512 71.0503 30.3084 71.0503 31.281C71.0503 32.2535 70.4983 32.9107 69.5783 32.9107C68.632 32.9107 68.1063 32.2272 68.1063 31.281ZM70.5772 31.281C70.5772 30.545 70.2355 30.0455 69.552 30.0455C68.8686 30.0455 68.5269 30.545 68.5269 31.281C68.5269 32.017 68.8686 32.5164 69.552 32.5164C70.2355 32.5164 70.5772 32.017 70.5772 31.281Z" fill="#323131"/>
<path d="M72.2068 29.7301H73.4685C73.5999 29.7301 73.8102 29.7301 73.9679 29.7827C74.3096 29.8615 74.5462 30.177 74.5462 30.5712C74.5462 30.7815 74.4674 30.9655 74.3622 31.097C74.3096 31.1495 74.2308 31.2021 74.1782 31.2284C74.2308 31.2284 74.3096 31.281 74.3885 31.3072C74.5988 31.4387 74.7302 31.649 74.7302 31.9644C74.7302 32.385 74.5199 32.6741 74.1782 32.753C74.0205 32.8055 73.8365 32.8055 73.6788 32.8055H72.2331V29.7301H72.2068ZM73.4948 31.097C73.5999 31.097 73.7314 31.097 73.8102 31.0444C73.9942 30.9655 74.0994 30.7815 74.0994 30.5975C74.0994 30.3872 73.9942 30.2032 73.7839 30.1244C73.6525 30.0718 73.4422 30.0718 73.4159 30.0718H72.6011V31.0707H73.4948V31.097ZM73.6262 32.4638C73.7051 32.4638 73.8365 32.4375 73.9416 32.4112C74.1782 32.3587 74.2571 32.1484 74.2571 31.9644C74.2571 31.7015 74.0731 31.5175 73.8102 31.465C73.7314 31.4387 73.6262 31.4387 73.5474 31.4387H72.6274V32.4375H73.6262V32.4638Z" fill="#323131"/>
<path d="M78.2789 32.8318H77.8846V30.4136L76.2023 32.8318H75.8606V29.7564H76.2549V32.1484L77.9372 29.7564H78.2789V32.8318Z" fill="#323131"/>
<path d="M82.0903 32.8318H81.696V30.4135L80.0138 32.8318H79.6458V29.7564H80.04V32.1484L81.7223 29.7564H82.064V32.8318H82.0903ZM80.1715 28.6524H80.5132C80.5132 28.8627 80.6972 29.0467 80.9075 29.0467C81.1177 29.0467 81.3017 28.8627 81.3017 28.6524H81.6435C81.6435 29.0467 81.3017 29.3884 80.9075 29.3884C80.5132 29.3884 80.1715 29.073 80.1715 28.6524Z" fill="#323131"/>
<path d="M85.1394 29.7301H85.56V31.2284L86.9269 29.7301H87.4789L86.0332 31.281L87.6629 32.8318H87.0583L85.5337 31.3335V32.8318H85.1132V29.7301H85.1394Z" fill="#323131"/>
<path d="M88.2937 31.281C88.2937 30.3084 88.8457 29.6512 89.7657 29.6512C90.6857 29.6512 91.2377 30.3084 91.2377 31.281C91.2377 32.2535 90.6857 32.9107 89.7657 32.9107C88.8457 32.9107 88.2937 32.2272 88.2937 31.281ZM90.7646 31.281C90.7646 30.545 90.4228 30.0455 89.7394 30.0455C89.056 30.0455 88.7143 30.545 88.7143 31.281C88.7143 32.017 89.056 32.5164 89.7394 32.5164C90.4491 32.5164 90.7646 32.017 90.7646 31.281Z" fill="#323131"/>
<path d="M92.3943 29.7301H92.7623L93.9714 32.2535L95.1806 29.7301H95.5486V32.8055H95.1543V30.6238L94.1291 32.8055H93.8663L92.8411 30.6238V32.8055H92.4469V29.7301H92.3943Z" fill="#323131"/>
<path d="M96.9154 29.7301H99.36V32.8055H98.9394V30.1244H97.3097V32.8055H96.8892V29.7301H96.9154Z" fill="#323131"/>
<path d="M100.438 32.4638C100.78 32.5164 100.832 32.3324 100.911 31.9907C101.016 31.4387 101.069 30.729 101.121 29.7301H103.224V32.8055H102.777V30.1244H101.489C101.437 30.9392 101.358 31.7541 101.253 32.201C101.148 32.7004 100.99 32.9107 100.411 32.8055V32.4638H100.438Z" fill="#323131"/>
<path d="M107.719 29.7301H108.139V31.2284L109.506 29.7301H110.058L108.613 31.281L110.242 32.8318H109.638L108.113 31.3335V32.8318H107.693V29.7301H107.719Z" fill="#323131"/>
<path d="M110.899 31.281C110.899 30.3084 111.425 29.6512 112.345 29.6512C112.976 29.6512 113.449 29.9667 113.633 30.4924L113.213 30.6238C113.081 30.2558 112.739 30.0455 112.345 30.0455C111.662 30.0455 111.346 30.545 111.346 31.281C111.346 32.017 111.688 32.5164 112.345 32.5164C112.766 32.5164 113.055 32.3061 113.213 31.9381L113.633 32.0695C113.397 32.6215 112.95 32.9107 112.345 32.9107C111.399 32.9107 110.899 32.2272 110.899 31.281Z" fill="#323131"/>
<path d="M17.5589 36.0387C7.88572 36.0387 0 28.1529 0 18.4535C0 8.78037 7.88572 0.894653 17.5589 0.894653C27.232 0.894653 35.1177 8.78037 35.1177 18.4535C35.144 28.1529 27.2583 36.0387 17.5589 36.0387ZM17.5589 1.68322C8.30629 1.68322 0.788572 9.20094 0.788572 18.4535C0.788572 27.7061 8.30629 35.2238 17.5589 35.2238C26.8114 35.2238 34.3292 27.7061 34.3292 18.4535C34.3554 9.20094 26.8114 1.68322 17.5589 1.68322Z" fill="#323131"/>
<path d="M22.1851 17.9281C22.5268 18.2698 22.7108 18.7429 22.7108 19.2161C22.7108 19.6892 22.5268 20.1623 22.1851 20.5041C21.8434 20.8458 21.3703 21.0298 20.8971 21.0298C20.424 21.0298 19.9508 20.8458 19.6091 20.5041C19.2674 20.1623 19.0834 19.7155 19.0834 19.2161V19.1635H19.872V19.2161C19.872 19.7943 20.3451 20.2412 20.8971 20.2412C21.4491 20.2412 21.9223 19.7681 21.9223 19.2161C21.9223 18.6641 21.4491 18.1909 20.8971 18.1909C20.7131 18.1909 20.5291 18.2435 20.3714 18.3223L19.872 17.9018L21.16 16.2983H19.0571V15.5098H22.816L21.2388 17.4549C21.6068 17.5075 21.9223 17.6915 22.1851 17.9281Z" fill="#323131"/>
<path d="M27.6262 20.9769H23.4205C23.4205 20.9769 24.6297 19.5575 25.2342 18.8478C25.5497 18.4798 25.8914 18.1381 26.1805 17.7438C26.3382 17.5335 26.4697 17.2706 26.4171 17.0078C26.3645 16.7712 26.2068 16.6398 26.0754 16.5346C25.8914 16.4032 25.6811 16.3506 25.4708 16.3506C24.8662 16.3506 24.3668 16.8501 24.3668 17.4546H23.4468C23.4468 16.9289 23.6571 16.4032 24.0251 16.0352C24.4194 15.6672 24.9188 15.4569 25.4445 15.4569C25.8388 15.4569 26.2594 15.5883 26.5748 15.7986C26.9428 16.0615 27.2057 16.4295 27.2845 16.8238C27.3634 17.2181 27.3108 17.6123 27.1005 17.9803C26.8902 18.3746 26.5748 18.6901 26.2857 19.0318L25.3394 20.1358H27.6262V20.9769Z" fill="#323131"/>
<path d="M11.4606 10.7518L18.6629 25.1038L17.0069 28.3895L8.17493 10.7518H11.4606Z" fill="#323131"/>
<path d="M24.0777 13.0124L22.7634 10.7781H25.3657L24.0777 13.0124Z" fill="#323131"/>
<path d="M51.0469 10.673L44.5018 23.553L37.9829 10.673H40.3486L44.5018 18.9267L48.6812 10.673H51.0469Z" fill="#323131"/>
<path d="M59.7475 18.3484L53.0183 19.9255C53.5178 20.977 54.7006 21.5552 55.8572 21.3187C56.6195 21.1347 57.2503 20.609 57.5921 19.8992L59.3269 20.7141C59.0378 21.3187 58.6435 21.8707 58.1441 22.2912C57.5921 22.7381 56.9875 23.0535 56.3041 23.2112C55.1475 23.4741 53.9646 23.2901 52.9395 22.633C51.9143 22.0021 51.2309 21.0032 50.9418 19.8467C50.6789 18.6901 50.8629 17.481 51.4938 16.4821C52.1246 15.457 53.0972 14.7472 54.2801 14.4844C55.4366 14.2215 56.6195 14.4055 57.6446 15.0627C58.3806 15.5095 58.9326 16.1667 59.3006 16.9027C59.4321 17.1918 59.5635 17.5072 59.6423 17.849L59.7475 18.3484ZM57.3292 17.297C56.7509 16.4821 55.7258 16.0615 54.7006 16.2718C53.6755 16.5084 52.9395 17.3495 52.7818 18.3484L57.3292 17.297Z" fill="#323131"/>
<path d="M67.8171 14.4318V16.6661C67.7908 16.6661 67.7908 16.6398 67.7645 16.6398C67.528 16.5609 67.3177 16.5347 67.0811 16.5347C66.4765 16.5347 65.872 16.7712 65.4777 17.1918C65.2674 17.4284 65.136 17.6912 65.0308 18.0067C64.952 18.2958 64.952 18.5587 64.952 18.8741V23.1061H62.8491V14.5632H64.952V15.8249C64.952 15.8249 65.872 14.3267 67.8171 14.4318Z" fill="#323131"/>
<path d="M77.2274 23.0798V19.1369C77.2274 18.4535 77.2537 17.5335 76.7806 16.9815C76.36 16.4821 75.7292 16.2718 75.0983 16.2981C74.3886 16.3244 73.8366 16.5347 73.4686 16.9815C72.9691 17.5335 72.9954 18.3484 72.9954 19.0318V20.5564C72.9954 21.3975 72.9954 22.2124 72.9954 23.0535H70.8926V14.5369H72.9954V15.7987C72.9954 15.6935 73.9943 14.2478 76.0446 14.3792C77.5166 14.4844 78.5943 15.3518 79.0412 16.7187C79.3829 17.6912 79.3829 18.7164 79.3829 19.7152V23.0535H77.2274V23.0798Z" fill="#323131"/>
<path d="M92.6308 14.5632V23.0798H90.528V21.3449C89.7131 22.5278 88.3463 23.3164 86.7954 23.3164C84.3245 23.3164 82.3005 21.2924 82.3005 18.7952C82.3005 16.2981 84.3245 14.3004 86.7954 14.3004C88.3463 14.3004 89.7394 15.0889 90.528 16.2718V14.5632H92.6308ZM90.0022 18.8215C90.0022 17.2706 88.7405 16.0352 87.216 16.0352C85.6914 16.0352 84.4297 17.2706 84.4297 18.8215C84.4297 20.3461 85.6914 21.6078 87.216 21.6078C88.7405 21.6078 90.0022 20.3461 90.0022 18.8215Z" fill="#323131"/>
<path d="M100.07 14.3004C101.331 14.3004 102.435 14.7998 103.277 15.641V10.673H105.379V23.0798H103.277V22.0021C102.462 22.817 101.331 23.3164 100.07 23.3164C97.5988 23.3164 95.5748 21.2924 95.5748 18.7953C95.5486 16.3244 97.5726 14.3004 100.07 14.3004ZM100.464 21.6078C101.989 21.6078 103.25 20.3724 103.25 18.8215C103.25 17.297 101.989 16.0353 100.464 16.0353C98.9394 16.0353 97.6777 17.297 97.6777 18.8215C97.6777 20.3724 98.9131 21.6078 100.464 21.6078Z" fill="#323131"/>
<path d="M115.237 20.7404C115.237 21.5026 114.869 22.1598 114.185 22.6329C113.554 23.0535 112.713 23.2901 111.767 23.2901C110.137 23.2901 108.823 22.5541 108.323 21.3449L108.245 21.1872L110.006 20.5564L110.058 20.6878C110.347 21.2924 110.978 21.6341 111.767 21.6341C112.161 21.6341 112.503 21.5552 112.766 21.3975C113.029 21.2661 113.16 21.0558 113.16 20.8192C113.16 20.1884 112.187 19.7941 111.478 19.5049L111.451 19.4786C110.899 19.2421 110.242 18.9529 109.769 18.5586C109.165 18.0592 108.902 17.5072 108.902 16.8238C108.902 16.1141 109.217 15.4832 109.822 15.0101C110.374 14.5632 111.189 14.3004 112.03 14.3004C113.344 14.3004 114.448 14.8786 114.974 15.8512L115.079 16.0352L113.265 16.6924L113.186 16.5609C113.107 16.3769 112.95 16.2192 112.739 16.1141C112.555 16.0089 112.293 15.9564 112.003 15.9564C111.294 15.9564 110.794 16.2981 110.794 16.7449C110.794 17.0078 110.952 17.2444 111.294 17.4809C111.609 17.7175 112.082 17.9278 112.529 18.1118C112.608 18.1381 112.661 18.1644 112.713 18.1906C113.265 18.4272 113.896 18.6901 114.395 19.0581C114.947 19.5312 115.237 20.0569 115.237 20.7404Z" fill="#323131"/>
<path d="M126.881 23.0798H124.515L121.887 19.505L120.467 21.0821V23.0798H118.365V10.673H120.467V18.2433L124.226 14.0375H126.829L123.175 18.0593L126.881 23.0798Z" fill="#323131"/>
<path d="M130.246 26.1815H129.983V24.2363C130.745 24.2889 131.35 24.1312 131.823 23.7632C132.007 23.6055 132.165 23.4478 132.27 23.2375C132.349 23.106 132.401 22.9483 132.454 22.8169L132.506 22.6855V22.6592L128.905 14.0375H131.008L133.531 20.0569L135.897 14.0375H138C137.579 15.1152 134.53 22.7906 134.478 22.9221L134.425 23.0535C134.083 23.8683 133.715 24.7095 133.032 25.2615C132.638 25.5769 132.217 25.8135 131.718 25.9712C131.271 26.1026 130.771 26.1815 130.246 26.1815Z" fill="#323131"/>
<path d="M104.565 29.7301H106.51V30.0981H104.933V31.0707H106.247V31.4387H104.933V32.4638H106.51V32.8318H104.565V29.7301Z" fill="#323131"/>
<path d="M127.013 25.8661H40.4011V26.6547H127.013V25.8661Z" fill="#323131"/>
</svg>
