<svg width="750" height="750" viewBox="0 0 750 750" fill="none" xmlns="http://www.w3.org/2000/svg">
<path d="M742.5 375C742.5 577.843 577.843 742.5 375 742.5C172.157 742.5 7.5 577.843 7.5 375C7.5 172.157 172.157 7.5 375 7.5C577.843 7.5 742.5 172.157 742.5 375Z" stroke="#F9F9F9" stroke-width="15" stroke-miterlimit="10"/>
<path d="M475.979 363.501C483.645 371.167 487.478 381.069 487.478 391.929C487.478 402.79 483.326 412.692 475.979 420.038C468.313 427.705 458.411 431.857 447.551 431.857C436.69 431.857 426.788 427.705 419.122 420.038C411.456 412.372 407.623 402.47 407.623 391.929V390.652H424.872V391.929C424.872 404.387 435.093 414.608 447.551 414.608C460.008 414.608 470.23 404.387 470.23 391.929C470.23 379.472 460.327 369.25 447.551 369.25C443.398 369.25 439.565 370.528 436.051 372.125L425.191 362.862L453.3 328.045H407.623V310.797H489.714L456.175 352.641C463.202 354.238 470.229 358.071 475.979 363.501Z" fill="#F9F9F9"/>
<path d="M594.803 429.94H502.81C503.129 429.94 529.003 398.957 542.099 383.624C549.126 375.639 556.473 367.973 562.861 359.348C566.375 354.557 569.25 349.446 567.972 343.377C566.694 338.267 563.5 335.072 560.625 333.475C556.792 330.92 552.001 329.323 547.21 329.323C534.113 329.323 523.253 340.183 523.253 353.279H503.449C503.449 341.461 507.921 330.601 516.226 321.976C524.531 313.671 535.71 309.199 547.529 309.199C556.153 309.199 565.097 312.074 572.444 316.865C580.429 322.296 586.179 330.601 587.776 339.225C589.692 347.849 588.415 356.474 583.623 364.779C578.832 373.403 571.805 380.111 565.736 387.457L544.974 411.414H594.803V429.94Z" fill="#F9F9F9"/>
<path d="M242.163 206.346L398.999 519.698L362.904 591.567L170.613 206.346H242.163Z" fill="#F9F9F9"/>
<path d="M517.185 256.176L489.076 207.304H545.614L517.185 256.176Z" fill="#F9F9F9"/>
</svg>
