<svg width="15" height="13" viewBox="0 0 15 13" fill="none" xmlns="http://www.w3.org/2000/svg">
<path d="M0.161667 12.9734C0.198333 12.9913 0.238333 13 0.277778 13C0.342778 13 0.407222 12.9763 0.458333 12.9301L3.09889 10.5762C3.85333 9.90311 4.81667 9.53276 5.81055 9.53276H13.0556C14.1278 9.53276 15 8.62564 15 7.51053V2.02222C15 0.907111 14.1278 0 13.0556 0H1.94444C0.872222 0 0 0.907111 0 2.02222V12.7111C0 12.8238 0.0627777 12.9266 0.161667 12.9734ZM0.555556 2.02222C0.555556 1.22604 1.17833 0.577778 1.94444 0.577778H13.0556C13.8217 0.577778 14.4444 1.22604 14.4444 2.02222V7.51111C14.4444 8.30729 13.8217 8.95556 13.0556 8.95556H5.81055C4.68444 8.95556 3.59333 9.3756 2.73778 10.1377L0.555556 12.0831V2.02222Z" fill="#7A7979"/>
</svg>
