<svg width="15" height="16" viewBox="0 0 15 16" fill="none" xmlns="http://www.w3.org/2000/svg">
<path d="M7.5 6.10151C8.19051 6.10151 8.81558 5.80276 9.26788 5.3198C9.72017 4.83686 10 4.16943 10 3.43213C10 2.69491 9.72017 2.02749 9.26788 1.54446C8.81558 1.06152 8.19051 0.76277 7.5 0.76277C6.80957 0.76277 6.18449 1.06152 5.73213 1.54446C5.27984 2.02749 5.00005 2.69491 5.00005 3.43213C5.00005 4.16943 5.27984 4.83686 5.73213 5.3198C6.18449 5.80276 6.80957 6.10151 7.5 6.10151ZM15 15.351C15 15.5286 14.9314 15.6908 14.8209 15.8088L14.8216 15.8096C14.7116 15.927 14.5593 16 14.3919 16H0.607986C0.441551 16 0.289763 15.927 0.179689 15.8096L0.179062 15.8089L0.178364 15.8096C0.0684292 15.6922 0 15.5299 0 15.351C0 13.2221 0.815438 11.2868 2.12913 9.88405C3.44291 8.48127 5.25536 7.6105 7.24909 7.6105H7.75084C9.74465 7.6105 11.5571 8.48127 12.8708 9.884C14.1845 11.2868 15 13.2221 15 15.351ZM0.715269 15.2372H14.2847C14.2563 13.3636 13.5268 11.663 12.3658 10.4232C11.1813 9.15839 9.54752 8.37319 7.75084 8.37319H7.24909C5.45241 8.37319 3.81868 9.15839 2.63417 10.4232C1.47309 11.663 0.743729 13.3636 0.715269 15.2372ZM9.77283 5.85899C9.19121 6.48009 8.38756 6.86426 7.5 6.86426C6.61251 6.86426 5.80886 6.48009 5.22718 5.85899C4.64547 5.23796 4.28568 4.37985 4.28568 3.43213C4.28568 2.4845 4.64547 1.62639 5.22718 1.00529C5.80886 0.384188 6.61251 -6.35782e-08 7.5 -6.35782e-08C8.38756 -6.35782e-08 9.19121 0.384188 9.77283 1.00529C10.3545 1.62639 10.7143 2.4845 10.7143 3.43213C10.7143 4.37985 10.3545 5.23796 9.77283 5.85899Z" fill="#7A7979"/>
</svg>
