<svg width="1361" height="700" viewBox="0 0 1361 700" fill="none" xmlns="http://www.w3.org/2000/svg">
<line x1="95.5" y1="700" x2="95.5" y2="4.25457e-08" stroke="#627F80"/>
<line x1="1264.5" y1="700" x2="1264.5" y2="4.25457e-08" stroke="#627F80"/>
<line x1="1361" y1="96.5001" x2="-4.37115e-08" y2="96.5" stroke="#627F80"/>
<path d="M698.484 349.492V349.493C699.006 542.274 542.274 699.007 349.492 699.007C157.234 699.007 0.5 542.274 0.5 349.492C0.5 157.234 157.234 0.5 349.492 0.5C541.75 0.5 698.484 157.234 698.484 349.492ZM349.492 15.1957C165.052 15.1957 15.1957 165.052 15.1957 349.492C15.1957 533.932 165.052 683.788 349.492 683.788C533.931 683.788 683.787 533.932 683.788 349.493C684.312 165.051 533.93 15.1957 349.492 15.1957Z" stroke="#627F80"/>
<rect x="48" y="604" width="48" height="2" fill="#C2A7A1"/>
<rect x="96" y="604" width="47" height="2" fill="#7E8888"/>
<rect x="1216" y="96" width="48" height="2" fill="#C2A7A1"/>
<rect x="1264" y="96" width="47" height="2" fill="#7E8888"/>
<rect x="1265" y="652" width="49" height="2" transform="rotate(-90 1265 652)" fill="#C2A7A1"/>
<rect x="1265" y="603" width="48" height="2" transform="rotate(-90 1265 603)" fill="#7E8888"/>
<rect x="96" y="48" width="48" height="2" transform="rotate(90 96 48)" fill="#C2A7A1"/>
<rect x="96" y="96" width="47" height="2" transform="rotate(90 96 96)" fill="#7E8888"/>
<line x1="1361" y1="603.5" x2="-4.37115e-08" y2="603.5" stroke="#627F80"/>
</svg>
