<?xml version="1.0" encoding="UTF-8" standalone="no"?>
<svg
   xmlns:dc="http://purl.org/dc/elements/1.1/"
   xmlns:cc="http://creativecommons.org/ns#"
   xmlns:rdf="http://www.w3.org/1999/02/22-rdf-syntax-ns#"
   xmlns:svg="http://www.w3.org/2000/svg"
   xmlns="http://www.w3.org/2000/svg"
   xmlns:sodipodi="http://sodipodi.sourceforge.net/DTD/sodipodi-0.dtd"
   xmlns:inkscape="http://www.inkscape.org/namespaces/inkscape"
   inkscape:version="1.0 (4035a4fb49, 2020-05-01)"
   sodipodi:docname="2.svg"
   id="svg34"
   version="1.1"
   viewBox="0 0 388 352"
   height="352"
   width="388">
  <metadata
     id="metadata40">
    <rdf:RDF>
      <cc:Work
         rdf:about="">
        <dc:format>image/svg+xml</dc:format>
        <dc:type
           rdf:resource="http://purl.org/dc/dcmitype/StillImage" />
        <dc:title></dc:title>
      </cc:Work>
    </rdf:RDF>
  </metadata>
  <defs
     id="defs38" />
  <sodipodi:namedview
     inkscape:current-layer="svg34"
     inkscape:window-maximized="1"
     inkscape:window-y="-8"
     inkscape:window-x="1912"
     inkscape:cy="177.87313"
     inkscape:cx="251.17718"
     inkscape:zoom="3.419022"
     showguides="false"
     showgrid="false"
     id="namedview36"
     inkscape:window-height="1017"
     inkscape:window-width="1920"
     inkscape:pageshadow="2"
     inkscape:pageopacity="0"
     guidetolerance="10"
     gridtolerance="10"
     objecttolerance="10"
     borderopacity="1"
     bordercolor="#666666"
     pagecolor="#ffffff" />
  <path
     sodipodi:nodetypes="csssssccsssscccccccc"
     id="path26"
     fill="red"
     d="m 271.574,151.747 c 6.801,6.802 10.77422,8.24485 10.77422,17.66285 0,9.417 -3.47322,11.30915 -10.27422,18.11015 -6.802,6.802 -8.719,9.964 -18.136,9.964 -9.418,0 -11.68811,-2.98985 -18.49011,-9.79185 -6.801,-6.801 -12.62173,-8.76536 -9.90337,-18.32643 L 225.533,168.337 v 0 1.047 c 0,11.51 17.418,28.404 28.405,28.404 10.987,0 28.404,-17.39115 28.404,-28.37815 0,-10.987 -18.62349,-26.90613 -29.61049,-26.90613 -3.663,0 3.139,-1.569 0,0 v 0 L 275.669,103.309 h -58.355 v 0.305 h 58.317 l -22.89949,38.88972 c 7.325,1.046 13.61049,4.53528 18.84249,9.24328 z"
     class="fishka-1" />
  <path
     id="path28"
     fill="red"
     d="M387.875 204.446H304.164C304.164 204.446 328.231 176.194 340.264 162.068C346.543 154.743 353.344 147.941 359.099 140.094C362.238 135.908 364.854 130.676 363.808 125.444C362.762 120.736 359.623 118.12 357.007 116.027C353.344 113.411 349.159 112.364 344.973 112.364C332.94 112.364 322.999 122.305 322.999 134.338H304.687C304.687 123.875 308.873 113.411 316.198 106.086C324.045 98.7615 333.986 94.5759 344.45 94.5759C352.298 94.5759 360.669 97.1919 366.947 101.377C374.272 106.609 379.504 113.934 381.073 121.782C382.643 129.63 381.597 137.478 377.411 144.802C373.226 152.65 366.947 158.929 361.192 165.73L342.357 187.704H387.875V204.446Z"
     class="fishka-2" />
  <path
     sodipodi:nodetypes="cccc"
     id="path30"
     fill="#ff0000"
     d="m 33,0 156,319 v 0 z"
     class="fishka-3" />
  <path
     id="path32"
     fill="red"
     d="M317.244 45.1903L291.084 0.718964H342.88L317.244 45.1903Z"
     class="fishka-4" />
</svg>
