<svg width="20" height="20" viewBox="0 0 20 20" fill="none" xmlns="http://www.w3.org/2000/svg">
<path d="M16.0368 11.8287L16.0367 11.8287L16.0413 11.8333L18.4317 14.2324L18.4333 14.2341C18.8164 14.6133 19.0001 15.0451 19.0001 15.4788C19.0001 15.9104 18.8188 16.349 18.4403 16.7428L18.4396 16.7436C18.2576 16.934 18.0704 17.1171 17.8851 17.2937L17.8832 17.2956C17.8622 17.3159 17.8411 17.3363 17.82 17.3567C17.5709 17.5975 17.3175 17.8424 17.0947 18.1123L17.0902 18.1178C17.0882 18.12 17.0862 18.1224 17.084 18.125C17.0816 18.1278 17.079 18.1309 17.0764 18.1343C16.4856 18.7683 15.74 19.0867 14.8349 19.0867C14.7583 19.0867 14.6716 19.0829 14.5801 19.0785C13.1576 18.9867 11.8723 18.4504 10.88 17.9802C8.30525 16.7353 6.05046 14.9687 4.17483 12.7292C2.62371 10.8643 1.59255 9.13491 0.903418 7.27596L0.903409 7.27594C0.620147 6.51199 0.268994 5.38806 0.366651 4.19663C0.429265 3.49091 0.71124 2.88871 1.21024 2.38971L1.21025 2.38971L1.21133 2.38862L2.69064 0.896245L2.69067 0.89622L2.69069 0.896195L2.69072 0.896169L2.69074 0.896144L2.69077 0.896119L2.69079 0.896094L2.69082 0.896069L2.69084 0.896044L2.69087 0.89602L2.69089 0.895995L2.69092 0.895971L2.69094 0.895946L2.69097 0.895922L2.69099 0.895898L2.69101 0.895874L2.69104 0.89585L2.69106 0.895826L2.69109 0.895802L2.69111 0.895778L2.69113 0.895755L2.69116 0.895731L2.69118 0.895708L2.6912 0.895684L2.69123 0.895661L2.69125 0.895638L2.69127 0.895615L2.6913 0.895592L2.69132 0.895569L2.69134 0.895546L2.69137 0.895523L2.69139 0.8955L2.69141 0.895478L2.69143 0.895455L2.69146 0.895433L2.69148 0.895411L2.6915 0.895389L2.69152 0.895366L2.69154 0.895344L2.69157 0.895322L2.69159 0.895301L2.69161 0.895279L2.69163 0.895257L2.69165 0.895235L2.69167 0.895214L2.6917 0.895192L2.69172 0.895171L2.69172 0.895159L2.69174 0.89515L2.69176 0.895128L2.69178 0.895107L2.6918 0.895086L2.69182 0.895065L2.69184 0.895044L2.69186 0.895024L2.69189 0.895003L2.69191 0.894982L2.69193 0.894962L2.69195 0.894941L2.69197 0.894921L2.69199 0.8949L2.69201 0.89488L2.69203 0.89486L2.69205 0.89484L2.69207 0.89482L2.69209 0.8948L2.69211 0.89478L2.69213 0.89476L2.69215 0.89474L2.69217 0.894721L2.69219 0.894701L2.69221 0.894681L2.69223 0.894662L2.69225 0.894643L2.69227 0.894623L2.69228 0.894604L2.6923 0.894585L2.69232 0.894566L2.69234 0.894547L2.69236 0.894528L2.69238 0.894509L2.6924 0.89449L2.69242 0.894471L2.69244 0.894453L2.69245 0.894434L2.69247 0.894415L2.69249 0.894397L2.69251 0.894379L2.69253 0.89436L2.69255 0.894342L2.69256 0.894324L2.69258 0.894306L2.6926 0.894288L2.69262 0.89427L2.69264 0.894252L2.69265 0.894234L2.69267 0.894216L2.69269 0.894198L2.69271 0.89418L2.69273 0.894163L2.69274 0.894145L2.69276 0.894128L2.69278 0.89411L2.6928 0.894093L2.69281 0.894075L2.69283 0.894058L2.69285 0.894041L2.69286 0.894024L2.69288 0.894007L2.6929 0.89399L2.69292 0.893973L2.69293 0.893956L2.69295 0.893939L2.69297 0.893922L2.69298 0.893905L2.693 0.893888L2.69302 0.893872L2.69303 0.893855L2.69305 0.893839L2.69307 0.893822L2.69308 0.893806L2.6931 0.893789L2.69312 0.893773L2.69313 0.893757L2.69315 0.893741L2.69316 0.893724L2.69318 0.893708L2.6932 0.893692L2.69321 0.893676L2.69323 0.89366L2.69324 0.893644L2.69326 0.893628L2.69328 0.893613L2.69329 0.893597L2.69331 0.893581L2.69332 0.893565L2.69334 0.89355L2.69335 0.893534L2.69337 0.893519L2.69339 0.893503L2.6934 0.893488L2.69342 0.893472L2.69343 0.893457L2.69345 0.893442L2.69346 0.893426L2.69348 0.893411L2.69349 0.893396L2.69351 0.893381L2.69352 0.893366L2.69354 0.893351L2.69355 0.893336L2.69357 0.893321L2.69358 0.893306L2.6936 0.893291L2.69361 0.893276L2.69363 0.893261L2.69364 0.893247L2.69366 0.893232L2.69367 0.893217L2.69369 0.893202L2.6937 0.893188L2.69372 0.893173L2.69373 0.893159L2.69374 0.893144L2.69376 0.89313L2.69377 0.893115L2.69379 0.893101L2.6938 0.893087L2.69382 0.893072L2.69383 0.893058L2.69384 0.893044L2.69386 0.89303L2.69387 0.893015L2.69389 0.893001L2.6939 0.892987L2.69392 0.892973L2.69393 0.892959L2.69394 0.892945L2.69396 0.892931L2.69397 0.892917L2.69399 0.892903L2.694 0.892889L2.69401 0.892875L2.69403 0.892862L2.69404 0.892848L2.69405 0.892834L2.69407 0.89282L2.69408 0.892807L2.6941 0.892793L2.69411 0.892779L2.69412 0.892766L2.69414 0.892752L2.69415 0.892738L2.69416 0.892725L2.69418 0.892711L2.69419 0.892698L2.6942 0.892684L2.69422 0.892671L2.69423 0.892657L2.69424 0.892644L2.69426 0.89263L2.69427 0.892617L2.69428 0.892604L2.6943 0.89259L2.69431 0.892577L2.69432 0.892564L2.69434 0.89255L2.69435 0.892537L2.69436 0.892524L2.69438 0.892511L2.69439 0.892498L2.6944 0.892484L2.69442 0.892471L2.69443 0.892458L2.69444 0.892445L2.69446 0.892432L2.69447 0.892419L2.69448 0.892406L2.6945 0.892393L2.69451 0.89238L2.69452 0.892367L2.69453 0.892354L2.69455 0.892341L2.69456 0.892328L2.69457 0.892315L2.69459 0.892302L2.6946 0.892289L2.69461 0.892276L2.69463 0.892263L2.69464 0.89225L2.69465 0.892237L2.69466 0.892224L2.69468 0.892211L2.69469 0.892198L2.6947 0.892186L2.69472 0.892173L2.69473 0.89216L2.69474 0.892147L2.69475 0.892134L2.69477 0.892121L2.69478 0.892109L2.69479 0.892096L2.69481 0.892083L2.69482 0.89207L2.69483 0.892057L2.69484 0.892044L2.69486 0.892032L2.69487 0.892019L2.69488 0.892006L2.69489 0.891993L2.69491 0.891981L2.69492 0.891968L2.69493 0.891955L2.69495 0.891942L2.69496 0.89193L2.69497 0.891917L2.69498 0.891904L2.695 0.891891L2.69501 0.891879L2.69502 0.891866L2.69504 0.891853L2.69505 0.89184L2.69506 0.891828L2.69507 0.891815L2.69509 0.891802L2.6951 0.891789L2.69511 0.891776L2.69512 0.891764L2.69514 0.891751L2.69515 0.891738L2.69516 0.891725L2.69518 0.891713L2.69519 0.8917L2.6952 0.891687L2.69521 0.891674L2.69523 0.891661L2.69524 0.891648L2.69525 0.891636L2.69527 0.891623L2.69528 0.89161L2.69529 0.891597L2.6953 0.891584L2.69532 0.891571L2.69533 0.891559L2.69534 0.891546L2.69536 0.891533L2.69537 0.89152L2.69538 0.891507L2.69539 0.891494L2.69541 0.891481L2.69542 0.891468L2.69543 0.891455L2.69545 0.891442L2.69546 0.891429L2.69547 0.891416L2.69549 0.891403L2.6955 0.89139L2.69551 0.891377L2.69552 0.891364L2.69554 0.891351L2.69555 0.891338L2.69556 0.891325L2.69558 0.891311L2.69559 0.891298L2.6956 0.891285L2.69562 0.891272L2.69563 0.891259L2.69564 0.891245L2.69566 0.891232L2.69567 0.891219L2.69568 0.891206L2.6957 0.891192L2.69571 0.891179L2.69572 0.891166L2.69574 0.891152L2.69575 0.891139L2.69576 0.891125L2.69578 0.891112L2.69579 0.891098L2.6958 0.891085L2.69582 0.891071L2.69583 0.891058L2.69584 0.891044L2.69586 0.891031L2.69587 0.891017L2.69588 0.891003L2.6959 0.89099L2.69591 0.890976L2.69593 0.890962L2.69594 0.890949L2.69595 0.890935L2.69597 0.890921L2.69598 0.890907L2.69599 0.890893L2.69601 0.890879L2.69602 0.890866L2.69604 0.890852L2.69605 0.890838L2.69606 0.890824L2.69608 0.89081L2.69609 0.890795L2.69611 0.890781L2.69612 0.890767L2.69614 0.890753L2.69615 0.890739L2.69616 0.890725L2.69618 0.89071L2.69619 0.890696L2.69621 0.890682L2.69622 0.890667L2.69624 0.890653L2.69625 0.890638L2.69626 0.890624L2.69628 0.890609L2.69629 0.890595L2.69631 0.89058L2.69632 0.890566L2.69634 0.890551L2.69635 0.890536L2.69637 0.890521L2.69638 0.890507L2.6964 0.890492L2.69641 0.890477L2.69643 0.890462L2.69644 0.890447L2.69646 0.890432L2.69647 0.890417L2.69649 0.890402L2.6965 0.890387L2.69652 0.890371L2.69653 0.890356L2.69655 0.890341L2.69656 0.890326L2.69658 0.89031L2.69659 0.890295L2.69661 0.890279L2.69662 0.890264L2.69664 0.890248L2.69666 0.890233L2.69667 0.890217L2.69669 0.890202L2.6967 0.890186L2.69672 0.89017L2.69673 0.890154L2.69674 0.890145C3.07593 0.527155 3.50479 0.35 3.93226 0.35C4.3597 0.35 4.77916 0.527072 5.14468 0.88882L5.14453 0.88897L5.15348 0.897234C5.42822 1.15083 5.69622 1.42289 5.95603 1.69134C6.08998 1.83413 6.23193 1.97607 6.36499 2.10914L6.3669 2.11104L7.55557 3.29971C7.95832 3.70247 8.13882 4.14164 8.13882 4.55875C8.13882 4.97585 7.95832 5.41502 7.55557 5.81778C7.49355 5.8798 7.43172 5.94273 7.37115 6.00438L7.37051 6.00503C7.30937 6.06727 7.2495 6.1282 7.18982 6.18788L7.18817 6.18954C7.15709 6.22104 7.12603 6.25256 7.09495 6.28409C6.80129 6.58208 6.50643 6.88128 6.19094 7.16984L6.00375 7.34104L6.10821 7.57222C6.38876 8.19312 6.77179 8.7967 7.32828 9.50011L7.32825 9.50013L7.33131 9.50388C8.47464 10.9087 9.67328 12.0023 10.9985 12.844L10.9985 12.844L11.0016 12.8459C11.1417 12.9328 11.3019 13.0129 11.4525 13.0882L11.4582 13.0911C11.4979 13.1117 11.5362 13.1314 11.5739 13.1507C11.6454 13.1874 11.7146 13.2229 11.7866 13.2616L12.0155 13.3849L12.1996 13.2013L13.5755 11.8298L13.5759 11.8294C13.9612 11.4441 14.3895 11.2614 14.8175 11.2614C15.2485 11.2614 15.6703 11.4472 16.0368 11.8287Z" stroke="#7A7979" stroke-width="0.7"/>
</svg>
