<svg width="19" height="23" viewBox="0 0 19 23" fill="none" xmlns="http://www.w3.org/2000/svg">
<path d="M0.509958 10.8697L0.508705 10.8609L0.507011 10.8522C0.400969 10.3082 0.35 9.74891 0.35 9.1931C0.35 4.31865 4.31865 0.35 9.1931 0.35C14.0672 0.35 18.0362 4.31831 18.0458 9.1931C18.0458 9.74699 17.9904 10.3073 17.8883 10.8551L17.8869 10.8624L17.8859 10.8697C17.8832 10.8883 17.8668 10.977 17.8282 11.1507C17.6944 11.7508 17.4958 12.3329 17.2368 12.8926L17.2366 12.8925L17.2322 12.9028C16.2647 15.1806 14.1177 18.7161 9.38771 22.5173C9.33064 22.5629 9.26389 22.5847 9.1979 22.5847C9.13183 22.5847 9.06499 22.5628 9.00786 22.5171C4.2734 18.7161 2.13113 15.1808 1.16356 12.9028L1.16373 12.9027L1.15905 12.8926C0.900313 12.3335 0.701576 11.7466 0.56756 11.1506C0.52898 10.977 0.512619 10.8883 0.509958 10.8697Z" stroke="#7A7979" stroke-width="0.7"/>
<circle cx="9" cy="9" r="4.65" stroke="#7A7979" stroke-width="0.7"/>
</svg>
