<svg width="24" height="22" viewBox="0 0 24 22" fill="none" xmlns="http://www.w3.org/2000/svg">
<path d="M15.8943 6.43842H13.6703V6.17317H17.1869L15.719 7.98368L15.3301 8.46328L15.9413 8.5506C16.3009 8.60196 16.623 8.7824 16.908 9.03717C17.2532 9.38597 17.4426 9.8716 17.4426 10.3598C17.4426 10.8511 17.2509 11.3397 16.9016 11.6889C16.5524 12.0382 16.0638 12.2299 15.5726 12.2299C15.0813 12.2299 14.5927 12.0382 14.2435 11.6889C13.9582 11.4036 13.7793 11.0481 13.7223 10.6455H13.9929C14.1292 11.4093 14.8026 11.9647 15.5726 11.9647C16.4415 11.9647 17.1774 11.2288 17.1774 10.3598C17.1774 9.49086 16.4415 8.75501 15.5726 8.75501C15.3689 8.75501 15.1707 8.79553 14.9903 8.85989L14.8048 8.70365L16.1672 7.00761L16.6244 6.43842L15.8943 6.43842Z" stroke="#7A7979" stroke-width="0.7"/>
<path d="M21.0109 11.8365H23.4601V12.1661H19.42L19.7611 11.7657L21.1479 10.1377C21.148 10.1375 21.1481 10.1374 21.1483 10.1373C21.2646 10.0016 21.3901 9.86236 21.519 9.71947C21.79 9.41893 22.0757 9.1021 22.3216 8.76705C22.5286 8.49064 22.7681 8.06304 22.6732 7.58901L22.6733 7.589L22.6717 7.58173C22.5789 7.16395 22.2949 6.93678 22.1323 6.80675L22.1304 6.8052L22.123 6.79924L22.1152 6.7937C21.8201 6.58291 21.488 6.50328 21.1718 6.50328C20.3582 6.50328 19.6703 7.08677 19.5071 7.85463H19.0736C19.1454 7.42578 19.3464 7.01982 19.6454 6.7189C20.0679 6.32653 20.5938 6.10934 21.1396 6.10934C21.5501 6.10934 21.9953 6.24787 22.3243 6.46573C22.7149 6.74627 22.9732 7.12381 23.0486 7.50107C23.1295 7.90553 23.0759 8.30145 22.8627 8.67448L22.8626 8.6744L22.8578 8.68342C22.678 9.02046 22.4345 9.29811 22.1594 9.61181C22.0764 9.70645 21.9906 9.80438 21.9027 9.90821C21.9025 9.90849 21.9022 9.90876 21.902 9.90904L20.7451 11.2587L20.2499 11.8365H21.0109Z" stroke="#7A7979" stroke-width="0.7"/>
<path d="M0.566689 0.35H3.8059L12.446 17.5671L10.8118 20.8097L0.566689 0.35Z" stroke="#7A7979" stroke-width="0.7"/>
<path d="M20.437 0.382166L19.4631 2.07153L18.4694 0.382166H20.437Z" stroke="#7A7979" stroke-width="0.7"/>
</svg>
